<svg width="185" height="185" viewBox="0 0 185 185" fill="none" xmlns="http://www.w3.org/2000/svg">
<path d="M106.299 165.292L162.895 164.7C162.895 164.7 194.414 104.03 154.015 95.3283C117.942 87.5587 102.737 64.5476 97.5681 40.7566C89.8917 5.42311 22.2694 0.905785 14.374 62.177C6.47855 123.448 22.077 165.292 22.077 165.292H106.299Z" fill="#FDEDEE"/>
<path d="M79.5124 104.683L99.8062 103.091L83.3023 83.3943C83.3023 83.3943 82.7055 83.1952 82.3074 80.4098C82.1387 79.2281 80.5166 67.8753 80.5166 67.8753L79.9201 66.6821C79.9201 66.6821 82.1087 64.8913 84.2972 67.0798C86.4858 69.2684 91.062 77.8235 91.062 77.8235C91.062 77.8235 118.519 97.8583 122.698 108.857C126.478 118.804 79.1243 122.39 79.1243 122.39L80.517 104.683" fill="#FFAC9D"/>
<path d="M80.5174 104.683L96.8848 103.399C98.9457 108.46 98.868 114.684 97.5841 120.222C87.7927 121.726 79.1248 122.39 79.1248 122.39L80.5174 104.683Z" fill="#F19C7C"/>
<path d="M84.2973 67.0798C84.4775 67.26 84.675 67.4868 84.8837 67.7451C85.4657 72.1574 85.0458 76.7306 84.3302 81.0932C84.18 82.0101 84.0261 82.9943 83.8311 83.9892L83.3023 83.3946C83.3023 83.3946 82.7055 83.1956 82.3074 80.4102C82.1387 79.2284 80.5166 67.8757 80.5166 67.8757L79.9202 66.6821C79.9202 66.6821 82.1087 64.8913 84.2973 67.0798Z" fill="#F19C7C"/>
<path d="M79.7216 125.309C80.7827 125.309 75.4773 103.291 75.4773 103.291C75.4773 103.291 81.7114 100.174 94.4446 99.9084C94.4446 99.9084 95.9697 111.713 93.0519 123.386L79.7216 125.309Z" fill="#6F96BD"/>
<path opacity="0.5" d="M77.6985 112.934C79.0764 113.538 80.4431 114.174 81.8288 114.77C84.6893 116 87.6241 116.931 90.66 117.63C91.7885 117.889 92.9221 118.116 94.0577 118.33C93.8031 119.994 93.4753 121.69 93.0516 123.385L79.7213 125.309C80.2959 125.309 79.0042 118.854 77.6985 112.934Z" fill="#5086B2"/>
<path d="M78.3151 133.204C79.0067 123.004 78.69 112.766 78.5967 102.542C72.3145 104.32 64.4549 110.197 65.993 97.7199C67.7838 83.1959 53.6576 86.3794 53.6576 86.3794C53.6576 86.3794 53.4585 104.485 51.6681 104.485C49.8777 104.485 35.9505 102.694 34.7565 116.621C33.6695 129.307 68.2375 143.805 78.3151 133.204Z" fill="#FFAC9D"/>
<path d="M66.6579 104.354C63.6732 103.773 60.8523 102.68 58.5468 100.622C55.8625 98.2249 54.7047 95.0418 53.5115 91.8317C53.6314 88.7792 53.658 86.3786 53.658 86.3786C53.658 86.3786 67.7839 83.1952 65.9934 97.7191C65.565 101.193 65.8665 103.241 66.6579 104.354Z" fill="#F19C7C"/>
<path d="M75.4771 103.29C75.4771 103.29 77.3341 117.615 65.6617 119.737C53.9893 121.86 45.2355 104.617 45.2355 104.617C45.2355 104.617 32.237 106.739 32.7673 120.268C33.2978 133.797 36.7466 161.651 36.7466 161.651L76.273 158.733L77.5994 142.286C77.5994 142.286 88.2106 139.368 84.4966 121.064C80.7825 102.76 82.6396 101.168 82.6396 101.168L75.4771 103.29Z" fill="#6F96BD"/>
<path opacity="0.5" d="M37.2556 121.67C39.2584 124.547 41.6308 127.248 44.0106 129.816C48.7929 134.977 54.0906 139.688 59.9639 143.58C65.2831 147.104 70.7406 149.871 76.8681 151.357L76.2732 158.734L36.7468 161.652C36.7468 161.652 33.298 133.797 32.7675 120.268C32.6968 118.468 32.8714 116.876 33.217 115.458C34.7344 117.392 35.8492 119.648 37.2556 121.67Z" fill="#5086B2"/>
<path d="M143.625 164.949H95.5295L114.076 124.017H162.172L143.625 164.949Z" fill="#352C38"/>
<path d="M102.191 161.374H68.7192V164.949H102.191V161.374Z" fill="#352C38"/>
<path d="M146.875 164.949H98.7791L117.325 124.017H165.421L146.875 164.949Z" fill="#765E69"/>
<path d="M28.6691 127.944C28.6691 127.944 24.45 155.068 27.4637 161.095C31.164 168.496 76.4876 165.314 76.4876 165.314C76.4876 165.314 97.3829 166.52 76.8894 163.305C76.8894 163.305 100.798 166.52 78.2957 161.899C78.2957 161.899 99.9948 163.908 79.7021 160.291C79.7021 160.291 97.182 161.296 74.8799 157.88C74.8799 157.88 88.5422 154.867 70.8617 156.273C70.8617 156.273 54.3863 153.46 43.7377 151.25C43.7377 151.25 46.7514 132.766 46.3496 129.752C45.9481 126.738 28.6691 127.944 28.6691 127.944Z" fill="#FFAC9D"/>
<path d="M44.0773 136.482C41.4318 137.187 38.9202 137.765 36.1607 137.505C33.2074 137.226 30.3943 136.474 27.6519 135.49C28.1787 131.097 28.669 127.943 28.669 127.943C28.669 127.943 45.948 126.738 46.3498 129.752C46.4749 130.688 46.2695 133.119 45.9276 136.024C45.3079 136.161 44.6904 136.319 44.0773 136.482Z" fill="#F19C7C"/>
<path d="M47.9571 133.971L45.2353 104.617C45.2353 104.617 34.2944 104.437 29.8744 115.487C25.454 126.537 25.8562 132.967 25.8562 132.967C25.8562 132.967 36.103 137.387 47.9571 133.971Z" fill="#6F96BD"/>
<path d="M56.8166 58.3919C56.8166 58.3919 67.8656 51.8677 63.2358 43.2389C58.6056 34.6102 46.0837 45.6591 51.3451 52.4989C56.6065 59.3387 58.0798 41.6605 48.1882 43.2389C38.2967 44.8173 45.031 64.2845 56.8166 58.3919Z" fill="#965450"/>
<path d="M53.5547 58.7075C53.5547 58.7075 54.4097 58.5225 55.9656 58.0138C56.7426 57.7574 57.6935 57.4173 58.7843 56.9522C59.8735 56.486 61.1064 55.8955 62.4043 55.0952C63.6941 54.2919 65.072 53.277 66.2468 51.8699C66.8251 51.1639 67.352 50.3596 67.7131 49.4446C68.0768 48.5333 68.2833 47.5183 68.2577 46.4683C68.2355 45.4178 68.0043 44.346 67.6036 43.2985C67.2117 42.2581 66.6456 41.2328 65.8376 40.3855C65.0365 39.5341 63.9876 38.8818 62.8065 38.5521C61.6266 38.2165 60.3375 38.1954 59.074 38.426C57.8097 38.662 56.5602 39.1419 55.4235 39.8482C54.2961 40.5553 53.2487 41.4992 52.6045 42.7043C52.2885 43.304 52.095 43.9763 52.1176 44.6523C52.1239 44.8207 52.1427 44.9887 52.1738 45.1548C52.2049 45.3194 52.2512 45.5041 52.2959 45.6635C52.391 45.9988 52.5183 46.3266 52.6781 46.6366C52.9941 47.2579 53.4603 47.8051 54.0464 48.1855C54.6299 48.5654 55.3325 48.7756 56.0348 48.7564C56.7278 48.7405 57.4534 48.4881 57.8655 47.9605C58.0687 47.7 58.1712 47.377 58.1608 47.0444C58.1519 46.7106 58.0354 46.3728 57.8655 46.0591C57.1156 44.7911 55.9382 43.7306 54.6414 42.9122C53.3349 42.0915 51.8575 41.5084 50.3109 41.2328C48.7647 40.9579 47.1463 41.0026 45.5963 41.3993C44.0453 41.7944 42.5701 42.5152 41.2414 43.4639C40.9088 43.7085 40.5817 43.9386 40.2828 44.2179C39.9971 44.4751 39.7355 44.7881 39.5139 45.1108C39.0644 45.7623 38.8157 46.536 38.7521 47.3296C38.6444 48.9354 39.2649 50.5475 40.1355 51.952C41.0154 53.3677 42.1724 54.6216 43.4677 55.7061C44.7698 56.7831 46.2239 57.6978 47.7923 58.3464C49.3537 58.9939 51.0516 59.3802 52.727 59.2496C53.5613 59.1852 54.3838 58.9835 55.1364 58.6291C55.5164 58.453 55.8668 58.245 56.2176 57.9956C56.5742 57.7492 56.9076 57.4965 57.2428 57.2231C58.5745 56.1408 59.7588 54.8725 60.7941 53.4968C61.8297 52.1208 62.7188 50.6311 63.4104 49.059C64.0963 47.4887 64.5947 45.823 64.7091 44.1336C64.8275 42.4593 64.5089 40.714 63.4788 39.4202C62.472 38.1089 60.8463 37.3988 59.2264 37.101C57.5799 36.7869 55.8842 37.0207 54.3787 37.7037C52.8668 38.3793 51.563 39.4627 50.4744 40.7C49.3892 41.9473 48.5068 43.361 47.8371 44.8536C47.167 46.3451 46.6978 47.922 46.5221 49.5145C46.4362 50.3092 46.4251 51.1103 46.5358 51.8855C46.6431 52.6588 46.8717 53.4147 47.2828 54.0477C47.6839 54.6823 48.291 55.1736 48.9737 55.4275C49.676 55.7013 50.43 55.6972 51.1234 55.4445C51.8168 55.1955 52.4325 54.7389 52.9608 54.2068C53.4877 53.6689 53.9321 53.0517 54.3117 52.402C55.0617 51.0948 55.5667 49.6621 55.8328 48.2125C56.0999 46.7639 56.1295 45.2835 55.8424 43.8883C55.5542 42.4993 54.9122 41.1928 53.9002 40.2693C52.9031 39.3277 51.5903 38.8178 50.2787 38.6099C49.6131 38.507 48.9652 38.4648 48.2951 38.4903C47.6546 38.5174 47.0071 38.6391 46.4066 38.8433C45.1967 39.25 44.1633 40.0344 43.4104 40.9993C42.653 41.965 42.1461 43.0835 41.8345 44.2165C41.2074 46.4927 41.2918 48.8104 41.7757 50.8569C42.27 52.9078 43.1917 54.72 44.4009 56.0909C45.0036 56.7772 45.6711 57.3566 46.37 57.8188C47.0708 58.279 47.8012 58.6202 48.5204 58.8629C49.2397 59.109 49.952 59.2418 50.6246 59.3154C50.961 59.3613 51.2899 59.3639 51.607 59.3824C51.9244 59.375 52.2319 59.3879 52.5272 59.3613C53.7101 59.2917 54.7013 59.0797 55.492 58.8751C56.2816 58.6616 56.8751 58.4555 57.2698 58.3053C57.665 58.1547 57.8689 58.0767 57.8689 58.0767C57.8689 58.0767 57.6657 58.1566 57.2724 58.312C56.8791 58.4666 56.2875 58.6798 55.4994 58.9025C54.7098 59.1164 53.7186 59.3406 52.5309 59.4238C52.2349 59.4538 51.9252 59.4446 51.6059 59.4553C51.2866 59.4405 50.9554 59.4416 50.6161 59.399C49.9372 59.3324 49.2168 59.2066 48.4864 58.9658C47.756 58.7286 47.012 58.3915 46.296 57.9324C45.5815 57.4717 44.897 56.8908 44.2765 56.2004C43.0322 54.8214 42.075 52.991 41.5489 50.9116C41.0339 48.8359 40.9181 46.4805 41.5348 44.134C41.8434 42.9662 42.3618 41.8063 43.1455 40.7914C43.9247 39.7783 45.0121 38.9395 46.289 38.5018C46.9269 38.2817 47.5921 38.1499 48.287 38.1166C48.9519 38.0863 49.6575 38.1248 50.3379 38.228C51.7036 38.4352 53.1025 38.9636 54.1785 39.9663C55.2692 40.9501 55.9597 42.342 56.2697 43.7965C56.5798 45.2591 56.5565 46.7939 56.2893 48.2942C56.0226 49.7961 55.512 51.2779 54.7376 52.6473C54.345 53.3284 53.8829 53.9811 53.3219 54.5609C52.7592 55.1341 52.0913 55.6435 51.2984 55.9347C50.5147 56.233 49.5831 56.2407 48.7987 55.9314C47.9858 55.6336 47.2913 55.0626 46.8292 54.3393C46.3611 53.6193 46.1136 52.7897 45.9963 51.9609C45.8761 51.1288 45.8875 50.2863 45.9752 49.4553C46.1561 47.7914 46.6383 46.1645 47.3261 44.6242C48.0143 43.0832 48.9204 41.6228 50.0448 40.3252C51.1733 39.0379 52.5335 37.8976 54.1396 37.175C55.7321 36.4431 57.5825 36.1886 59.32 36.5182C60.198 36.6829 61.0512 36.9349 61.8534 37.35C62.6537 37.7559 63.3878 38.329 63.9502 39.0487C64.5155 39.765 64.907 40.6134 65.1142 41.4933C65.3229 42.3739 65.3791 43.2815 65.3184 44.1728C65.2004 45.9603 64.6839 47.686 63.9798 49.308C63.2686 50.9305 62.3629 52.4638 61.2962 53.8757C60.2295 55.2865 59.0107 56.5874 57.6317 57.7037C57.2909 57.9812 56.928 58.2543 56.5668 58.5025C56.2068 58.7578 55.805 58.9969 55.3939 59.1852C54.5688 59.5715 53.6712 59.7883 52.7732 59.8556C50.968 59.9914 49.1861 59.5741 47.5622 58.8981C45.9312 58.2195 44.4334 57.2719 43.0911 56.1567C41.7557 55.0338 40.5625 53.7377 39.6449 52.2555C39.1861 51.5162 38.7994 50.7266 38.533 49.8923C38.2611 49.0612 38.1268 48.1736 38.1871 47.2878C38.2581 46.405 38.5434 45.527 39.0484 44.7985C39.3012 44.4337 39.579 44.1003 39.9142 43.7991C40.2262 43.509 40.5814 43.2582 40.9188 43.0117C42.2963 42.0324 43.8366 41.2813 45.462 40.8709C47.0867 40.4584 48.7861 40.4147 50.4034 40.7059C52.0232 40.9952 53.5569 41.6198 54.9133 42.4808C56.2623 43.3496 57.473 44.4348 58.2884 45.8293C58.4812 46.1912 58.6251 46.5985 58.6348 47.0329C58.6477 47.4651 58.5031 47.9105 58.2341 48.248C57.685 48.9299 56.831 49.193 56.044 49.2111C55.2441 49.2277 54.4567 48.985 53.804 48.5547C53.1491 48.1244 52.6363 47.5102 52.2967 46.8316C52.1242 46.4927 51.9899 46.139 51.89 45.7779C51.8386 45.5884 51.7983 45.4227 51.7628 45.2332C51.7283 45.0449 51.7084 44.8551 51.7028 44.6649C51.6825 43.9012 51.9048 43.1612 52.2489 42.5178C52.9519 41.2258 54.0527 40.2575 55.2248 39.5297C56.4074 38.8048 57.6994 38.3175 59.0107 38.0811C60.3209 37.8502 61.6625 37.8787 62.8961 38.2376C64.1311 38.5888 65.2304 39.2847 66.0536 40.1827C66.8869 41.0766 67.4559 42.1374 67.8474 43.2115C68.2426 44.279 68.4708 45.3871 68.4812 46.4661C68.4956 47.5461 68.2714 48.5884 67.8888 49.5171C67.5085 50.4502 66.9627 51.2635 66.3681 51.9728C65.1608 53.3869 63.7622 54.3918 62.458 55.1851C61.1452 55.9747 59.9031 56.553 58.8068 57.0085C57.709 57.4628 56.7533 57.7929 55.9734 58.0408C54.4116 58.5321 53.5547 58.7075 53.5547 58.7075Z" fill="#965450"/>
<path d="M70.9673 40.9716C70.9673 40.9716 71.1034 41.3234 71.2555 41.9661C71.3317 42.2873 71.4087 42.6806 71.4786 43.1361C71.5397 43.5919 71.6063 44.1095 71.6118 44.6782C71.624 45.2462 71.6114 45.8644 71.5278 46.5134C71.499 46.8394 71.4272 47.1687 71.3702 47.508C71.2873 47.8417 71.2118 48.1866 71.0894 48.5236C70.874 49.207 70.5617 49.886 70.1718 50.5309C69.7973 51.188 69.2956 51.7756 68.7732 52.3346C68.2159 52.8597 67.6269 53.3555 66.9842 53.7458C66.8255 53.8461 66.6671 53.9456 66.5099 54.0451C66.3452 54.1317 66.1817 54.2176 66.0189 54.3034C65.8553 54.387 65.6962 54.4777 65.5323 54.5543C65.3658 54.6257 65.2008 54.6967 65.0369 54.767C64.873 54.8373 64.7109 54.9069 64.55 54.9757C64.3861 55.036 64.2211 55.0893 64.0586 55.1429C63.7319 55.245 63.4196 55.369 63.1014 55.4389C62.7862 55.5196 62.4798 55.5977 62.1835 55.6735C61.8856 55.7408 61.5937 55.7878 61.3158 55.8426C60.7616 55.9625 60.2443 56.0117 59.7881 56.0646C59.5598 56.0898 59.347 56.1186 59.1491 56.1356C58.9508 56.1478 58.7687 56.1589 58.6041 56.1693C57.9466 56.2048 57.571 56.2252 57.571 56.2252C57.571 56.2252 57.944 56.1767 58.5963 56.0923C58.7591 56.0724 58.9397 56.0505 59.1361 56.0269C59.3319 55.9984 59.542 55.9566 59.7674 55.9181C60.2173 55.8374 60.726 55.7575 61.271 55.6232C61.5441 55.5588 61.8309 55.5022 62.1228 55.4249C62.4121 55.3398 62.7115 55.2513 63.0193 55.1607C63.3301 55.0804 63.6324 54.9472 63.9487 54.8355C64.1064 54.7777 64.2655 54.7193 64.4264 54.6601C64.5829 54.5909 64.7405 54.5206 64.8996 54.4499C65.0587 54.3792 65.2193 54.3082 65.381 54.2368C65.5401 54.1602 65.6937 54.0699 65.8516 53.9867C66.0089 53.9016 66.1673 53.8161 66.326 53.7303C66.4773 53.6322 66.6294 53.5334 66.7822 53.4343C67.4012 53.0491 67.961 52.5622 68.4923 52.0534C68.9996 51.5225 69.4891 50.9649 69.8562 50.3374C70.2384 49.7221 70.5473 49.072 70.7634 48.4137C70.9898 47.7596 71.1478 47.1043 71.2422 46.4735C71.3469 45.8437 71.3809 45.238 71.3891 44.6793C71.3991 44.1199 71.3654 43.6071 71.3325 43.1523C71.2903 42.6983 71.237 42.3036 71.1804 41.9805C71.0698 41.3345 70.9673 40.9716 70.9673 40.9716Z" fill="#965450"/>
<path d="M35.5522 63.2552C35.7691 62.9795 36.0073 62.719 36.2634 62.4782C36.3873 62.3527 36.5194 62.2366 36.6552 62.1248C36.7917 62.0138 36.919 61.8902 37.0633 61.7892C37.3464 61.5798 37.625 61.3622 37.9284 61.1813L38.3757 60.8972L38.8427 60.647C38.9992 60.5653 39.1523 60.4757 39.3133 60.4028L39.8013 60.1953L40.2901 59.9884L40.7944 59.823C41.1311 59.7139 41.4648 59.5925 41.813 59.5256C42.1586 59.4505 42.5012 59.355 42.8505 59.2969L43.9035 59.1526C44.2539 59.0893 44.6102 59.1089 44.9636 59.0867C45.3173 59.0816 45.6721 59.0416 46.0255 59.076L47.0863 59.1345C47.4415 59.14 47.7893 59.21 48.14 59.2562L49.1904 59.4083C49.5375 59.4749 49.8798 59.5648 50.2246 59.6417L51.2576 59.8826L53.1469 60.3229L51.2003 60.2674C50.4307 60.2456 49.68 60.1583 48.9263 60.0524C48.1744 59.9444 47.4274 59.8057 46.6878 59.6329C46.3181 59.5455 45.9496 59.4538 45.5844 59.3483C45.2181 59.2477 44.8555 59.1323 44.4955 59.0109C44.1344 58.8914 43.7796 58.7549 43.4251 58.6168C43.074 58.47 42.7251 58.3183 42.3847 58.1473C42.0402 57.9856 41.7083 57.7973 41.3779 57.6093L40.8891 57.3137L40.4159 56.9933C40.2553 56.8908 40.1099 56.7668 39.9567 56.6536C39.8035 56.5404 39.6544 56.422 39.5131 56.294C39.2186 56.052 38.95 55.7815 38.6802 55.5129C38.429 55.2265 38.1711 54.9461 37.9535 54.6334C37.7175 54.3352 37.5288 54.0033 37.3297 53.681C37.1558 53.3436 36.9742 53.011 36.8417 52.6554C36.6859 52.3098 36.5979 51.9398 36.4813 51.582C36.6178 51.9343 36.7251 52.2961 36.899 52.631C37.0445 52.978 37.2383 53.3007 37.4233 53.6263C37.6331 53.9367 37.8318 54.2553 38.0764 54.5391C38.3021 54.8377 38.5681 55.1018 38.8238 55.3734C39.095 55.6302 39.3644 55.8885 39.6592 56.1182C39.8006 56.24 39.9497 56.3524 40.1029 56.4597C40.2557 56.5667 40.4007 56.6847 40.5609 56.7813L41.0323 57.0836L41.5189 57.3614C41.8478 57.5376 42.1775 57.714 42.5197 57.8643C42.8568 58.0252 43.2057 58.1595 43.5505 58.3035C43.9002 58.4359 44.2498 58.5673 44.6058 58.682C44.961 58.7985 45.3184 58.9091 45.6803 59.005C46.0406 59.1056 46.4047 59.1929 46.7695 59.2762C47.4999 59.4401 48.2381 59.5711 48.9799 59.6713C49.7203 59.7716 50.4714 59.8423 51.2092 59.8752L51.1518 60.26L50.1373 60.0151C49.7984 59.9363 49.462 59.8445 49.1213 59.7764L48.0901 59.6188C47.746 59.5703 47.4037 59.4982 47.0559 59.4904L46.0155 59.4246C45.6688 59.3872 45.3217 59.4246 44.9747 59.4264L44.4541 59.4408C44.2802 59.4397 44.1066 59.449 43.935 59.4741L42.8993 59.5896C42.5556 59.638 42.2182 59.7235 41.8767 59.7883C41.5326 59.8452 41.2029 59.9566 40.8699 60.0554L40.37 60.2053L39.8849 60.3969L39.3995 60.5893C39.2397 60.6578 39.0861 60.7406 38.9285 60.8139L38.4579 61.0415L38.0057 61.3034C37.6986 61.4699 37.4148 61.6734 37.1259 61.8699C36.9786 61.9642 36.848 62.0812 36.7081 62.1859C36.5683 62.2909 36.4336 62.4023 36.3041 62.52C36.0347 62.746 35.7842 62.9917 35.5522 63.2552Z" fill="#965450"/>
<path d="M62.2142 55.924C62.2142 55.924 60.5292 53.196 55.7954 54.4799C51.0617 55.7638 48.5741 59.7754 49.2964 61.9417C50.0183 64.1081 62.2142 55.924 62.2142 55.924Z" fill="#FFA65B"/>
<path d="M44.1741 69.6218C44.1741 69.6218 39.9294 84.0796 55.3159 92.0379L52.2652 70.1524L44.1741 69.6218Z" fill="#965450"/>
<path d="M69.7311 60.0055C69.7311 60.0055 86.8055 61.0382 82.5065 86.2681C78.7095 108.551 54.0553 104.97 52.6745 86.069C51.2644 66.7595 58.102 59.6078 69.7311 60.0055Z" fill="#FFAC9D"/>
<path d="M80.9151 67.4995C80.9151 67.4995 74.8515 52.5574 59.4277 55.9599C41.3887 59.9393 42.9805 77.3148 44.4394 79.3043C45.8983 81.2938 53.8566 77.4473 53.8566 77.4473C53.8566 77.4473 55.7136 83.1509 53.0607 86.4668C53.0607 86.4668 59.9579 83.2833 55.3155 74.9272C55.3155 74.9272 59.6926 79.4368 57.7031 83.6814C57.7031 83.6814 62.2127 78.1107 55.9789 73.0702C55.9789 73.0702 59.5602 72.2743 59.6926 66.3055C59.6926 66.3055 72.0284 62.3265 80.9151 67.4995Z" fill="#965450"/>
<path d="M79.9597 66.8886C79.9597 66.8886 80.2946 66.6356 80.8977 66.2515C81.5041 65.8682 82.3869 65.3454 83.5021 64.8281C84.0623 64.5761 84.6739 64.3108 85.3403 64.0803C86.0022 63.8391 86.7189 63.6337 87.4685 63.4595C88.2196 63.2896 89.0092 63.1709 89.8173 63.112C90.6253 63.0732 91.4534 63.0662 92.27 63.1901C92.6811 63.2286 93.0807 63.3385 93.4821 63.421C93.6823 63.4654 93.875 63.5383 94.0708 63.5956C94.2639 63.6615 94.4637 63.7055 94.648 63.7917C95.0202 63.9519 95.4002 64.0855 95.7432 64.2868C95.9182 64.38 96.0917 64.4725 96.2645 64.5643C96.4314 64.6653 96.5905 64.777 96.7518 64.8814C96.9109 64.9894 97.0741 65.0882 97.225 65.2007C97.3719 65.3191 97.5173 65.436 97.6613 65.5518C97.8033 65.6695 97.951 65.7779 98.0838 65.8996C98.2133 66.025 98.341 66.149 98.4671 66.2711C98.5929 66.3932 98.7172 66.5138 98.8393 66.6322C98.957 66.7551 99.0621 66.8864 99.1712 67.0096C99.3818 67.2631 99.606 67.491 99.7832 67.74C100.141 68.2347 100.484 68.6779 100.724 69.1116C100.98 69.5356 101.213 69.8986 101.364 70.2208C101.687 70.8521 101.872 71.2128 101.872 71.2128C101.872 71.2128 101.673 70.8602 101.324 70.243C101.161 69.9282 100.914 69.5756 100.643 69.1645C100.385 68.7438 100.027 68.3179 99.6618 67.8362C99.4802 67.5946 99.2519 67.3755 99.0373 67.131C98.9263 67.0122 98.819 66.8857 98.6999 66.7676C98.5763 66.6541 98.4508 66.539 98.3236 66.4221C98.1963 66.3055 98.0675 66.1871 97.9373 66.0672C97.8037 65.9514 97.6561 65.8493 97.5136 65.7376C97.3697 65.628 97.2243 65.5174 97.0778 65.4053C96.9272 65.2991 96.7647 65.2073 96.6068 65.1063C96.4465 65.0087 96.2889 64.904 96.1239 64.81C95.9533 64.7252 95.782 64.6401 95.6092 64.5543C95.2714 64.3674 94.8977 64.2487 94.534 64.1033C94.3538 64.0245 94.1585 63.9875 93.9701 63.929C93.7792 63.8791 93.592 63.8132 93.397 63.7758C93.0063 63.707 92.6189 63.6115 92.2208 63.5845C91.4316 63.475 90.6305 63.4935 89.8487 63.5412C89.0665 63.6093 88.3021 63.7348 87.574 63.9098C86.8469 64.0892 86.152 64.2986 85.509 64.5432C84.8618 64.7763 84.268 65.0442 83.7237 65.2976C83.1846 65.5625 82.6925 65.8105 82.2685 66.0524C81.8415 66.2892 81.4789 66.512 81.1829 66.6988C80.5902 67.0773 80.2787 67.3138 80.2787 67.3138L79.9597 66.8886Z" fill="#965450"/>
<path d="M79.7202 66.8397C79.7202 66.8397 79.765 66.7154 79.8486 66.482C79.9344 66.2526 80.0636 65.9192 80.2415 65.5011C80.5993 64.6667 81.1443 63.4872 81.9654 62.1604C82.3779 61.4988 82.8637 60.8028 83.445 60.1176C84.0233 59.4312 84.7119 58.7615 85.5281 58.1965C86.3451 57.6415 87.3137 57.1979 88.363 57.0784C89.3809 56.9589 90.4495 57.0007 91.4703 57.2131C92.4922 57.4299 93.4898 57.8502 94.286 58.5292C94.6778 58.8714 95.0212 59.2821 95.218 59.7731C95.312 60.0188 95.3653 60.287 95.3394 60.5568C95.3157 60.8254 95.2003 61.0899 95.0168 61.2835C94.8325 61.4784 94.6049 61.6061 94.3626 61.6823C94.1232 61.7633 93.8057 61.7397 93.5971 61.5765C93.3814 61.4189 93.2622 61.1865 93.1908 60.9612C93.1201 60.7329 93.0913 60.4998 93.0979 60.2726C93.1135 59.3587 93.5427 58.5529 94.0977 58.0115C94.3766 57.7389 94.6878 57.5235 95.0082 57.3729C95.1629 57.2856 95.3301 57.2382 95.4837 57.1731C95.6446 57.1284 95.7989 57.0766 95.9525 57.0458C96.567 56.916 97.1184 56.9086 97.5642 56.9445C98.0112 56.9748 98.3593 57.0314 98.5935 57.0814C98.8285 57.1284 98.9535 57.1535 98.9535 57.1535C98.9535 57.1535 98.8277 57.1313 98.5917 57.0902C98.3567 57.0462 98.0075 56.9981 97.562 56.9789C97.1176 56.9537 96.5704 56.9752 95.9688 57.1176C95.3723 57.2601 94.7111 57.5576 94.185 58.0996C93.6633 58.6324 93.2748 59.4179 93.2826 60.2726C93.2811 60.4843 93.3144 60.6981 93.3817 60.8983C93.4487 61.097 93.559 61.2872 93.7225 61.3985C94.0459 61.6357 94.542 61.4189 94.8295 61.1136C95.1255 60.7928 95.1307 60.3 94.9502 59.8812C94.7685 59.4571 94.4473 59.0857 94.0762 58.7778C93.3214 58.1651 92.3683 57.7866 91.3911 57.6049C90.4058 57.4295 89.4035 57.4155 88.4278 57.5557C87.4736 57.69 86.5978 58.1185 85.85 58.6557C85.1037 59.2029 84.4684 59.8523 83.9338 60.5227C83.3965 61.1921 82.9466 61.874 82.5655 62.5233C81.8066 63.8265 81.3068 64.9883 80.9823 65.8052C80.8206 66.2148 80.7044 66.54 80.6286 66.7613C80.5564 66.9811 80.5179 67.098 80.5179 67.098L79.7202 66.8397Z" fill="#965450"/>
<path d="M92.0567 42.298C92.0567 42.298 92.3405 42.7147 92.7342 43.5031C92.9288 43.8979 93.1489 44.3867 93.3513 44.9672C93.5541 45.5466 93.7402 46.2211 93.8134 46.9796C93.8867 47.7315 93.8393 48.591 93.4697 49.4017C93.2821 49.8013 93.0268 50.1879 92.6927 50.5146C92.3545 50.8321 91.9723 51.1266 91.5391 51.3375C91.3307 51.4611 91.0991 51.5355 90.8771 51.6379C90.6499 51.719 90.4094 51.7948 90.1837 51.8696C89.7161 52.012 89.261 52.1674 88.8125 52.3587C87.9105 52.7365 87.0369 53.2182 86.221 53.7821C84.5949 54.9195 83.2152 56.3921 82.2472 57.9616C81.2749 59.5304 80.7062 61.1765 80.5116 62.6151C80.4095 63.3344 80.3917 64.0004 80.4243 64.5865C80.4442 65.1744 80.5393 65.6798 80.6215 66.0931C80.7051 66.5082 80.8472 66.8087 80.8079 67.0625C80.778 67.3137 80.65 67.4991 80.65 67.4991C80.65 67.4991 80.4394 67.4469 80.2541 67.2534C80.0469 67.0666 80.0006 66.701 79.8759 66.2622C79.7797 65.8156 79.6669 65.268 79.6373 64.6301C79.6058 63.9941 79.6206 63.2715 79.7423 62.4986C79.8711 61.7271 80.0927 60.9079 80.422 60.0817C80.7476 59.254 81.1916 58.4245 81.7344 57.6286C82.8211 56.0387 84.2878 54.5635 85.999 53.4532C86.8512 52.8948 87.7591 52.4235 88.6919 52.059C89.6262 51.6624 90.6059 51.538 91.4258 51.1133C91.8465 50.9216 92.2136 50.6512 92.5421 50.3585C92.8655 50.0573 93.1153 49.6984 93.3032 49.3225C93.674 48.5614 93.7443 47.7289 93.6899 46.9889C93.6362 46.243 93.469 45.5699 93.2818 44.9894C93.0949 44.4078 92.8877 43.9153 92.7031 43.5168C92.3301 42.7221 92.0567 42.298 92.0567 42.298Z" fill="#965450"/>
<path d="M54.1924 73.1653C54.1924 73.1653 54.2423 73.1479 54.3367 73.1157C54.4484 73.0765 54.5824 73.0484 54.7629 73.0136C54.942 72.9862 55.1596 72.9625 55.4086 72.9688C55.5329 72.961 55.6639 72.9862 55.8015 72.9999C55.8703 73.008 55.9406 73.0162 56.0124 73.025C56.0827 73.0428 56.1545 73.0613 56.2277 73.0798C56.5256 73.139 56.8205 73.2792 57.1269 73.4221C57.4114 73.6041 57.7174 73.7839 57.9705 74.0411C58.2546 74.2664 58.467 74.5661 58.7053 74.848C58.9287 75.1403 59.1041 75.4689 59.3047 75.7782C59.4645 76.1079 59.624 76.4376 59.7812 76.7624C59.917 77.0947 60.0288 77.4295 60.1479 77.7481C60.2759 78.0641 60.3481 78.3852 60.4317 78.6846C60.5127 78.9843 60.5893 79.2673 60.6604 79.5289C60.8757 80.5886 61.0189 81.2949 61.0189 81.2949C61.0189 81.2949 60.973 81.1206 60.8931 80.8161C60.8109 80.512 60.7033 80.0754 60.5568 79.5574C60.4672 79.3036 60.3706 79.0283 60.2681 78.7371C60.1634 78.4474 60.0695 78.1362 59.9204 77.8354C59.7801 77.5313 59.6469 77.212 59.4915 76.8993C59.3169 76.5981 59.1397 76.2918 58.9624 75.9858C58.7438 75.7109 58.551 75.4152 58.3201 75.1655C58.0766 74.9283 57.8598 74.6715 57.5919 74.5002C57.3492 74.2923 57.0736 74.1698 56.826 74.037C56.5615 73.9463 56.3162 73.8516 56.0768 73.8298C56.0183 73.8198 55.961 73.8102 55.9047 73.8009C55.8478 73.8006 55.7926 73.7998 55.7382 73.7995C55.6306 73.8013 55.5288 73.7895 55.4341 73.8083C55.2436 73.8242 55.0833 73.8609 54.9531 73.8949C54.8284 73.9341 54.7218 73.9697 54.6774 73.9933C54.6308 74.0118 54.5783 74.0403 54.5809 74.0385L54.1924 73.1653Z" fill="#965450"/>
<path d="M60.2232 73.9989C60.3486 73.57 60.4392 73.1335 60.5181 72.6965C60.5939 72.2591 60.6457 71.8181 60.6694 71.3774C60.6923 70.9368 60.7005 70.4968 60.6668 70.0602C60.6535 69.8419 60.625 69.6251 60.5921 69.4101C60.5588 69.1948 60.5107 68.9835 60.4585 68.7734C60.3978 68.5658 60.3371 68.359 60.2554 68.1606C60.1799 67.9601 60.0855 67.767 59.986 67.5794C59.8891 67.3892 59.7707 67.2131 59.6511 67.0377C59.5198 66.8716 59.3933 66.7014 59.2401 66.5541C59.0995 66.3958 58.93 66.2662 58.7713 66.1271C58.597 66.0061 58.4339 65.8704 58.2459 65.7686C58.0676 65.6528 57.8744 65.561 57.6816 65.4689C57.4903 65.3738 57.2839 65.3091 57.0859 65.2273L57.2499 64.7274C57.5085 64.8125 57.7416 64.9061 57.9788 65.0105C58.213 65.1167 58.4438 65.2288 58.6681 65.3531C58.8978 65.4674 59.1117 65.6102 59.3318 65.7412C59.5513 65.874 59.7547 66.032 59.9664 66.1763C60.1747 66.3258 60.3649 66.5005 60.5636 66.6625C60.7611 66.8264 60.9325 67.0207 61.1178 67.1983C61.308 67.3714 61.456 67.5857 61.6236 67.7799C61.7032 67.8809 61.7912 67.9753 61.8634 68.0815L62.0706 68.4074C62.206 68.6261 62.3558 68.8352 62.455 69.0742C62.5627 69.3076 62.6811 69.5352 62.778 69.7716L63.0137 70.5024C63.1073 70.741 63.1232 71.0004 63.1758 71.2487C63.2105 71.5006 63.279 71.7482 63.2697 72.0038L63.2871 72.7631C63.3086 73.0154 63.2527 73.2659 63.2335 73.5164L63.141 74.2634L63.1488 73.512C63.1469 73.2629 63.1813 73.0139 63.1391 72.7668L63.0596 72.0271C63.0503 71.7789 62.9571 71.5439 62.9097 71.3034C62.8461 71.0659 62.8202 70.8184 62.717 70.5934L62.4561 69.9067C62.3518 69.6858 62.2267 69.4745 62.1142 69.2588C62.0103 69.0376 61.856 68.8459 61.7176 68.6461L61.5071 68.3482C61.4334 68.2517 61.3491 68.1629 61.2706 68.07C61.1064 67.8902 60.9635 67.6919 60.7778 67.5324C60.5972 67.3689 60.4319 67.1894 60.2395 67.0388C60.0459 66.8901 59.862 66.7302 59.6634 66.5885C59.4602 66.4535 59.2663 66.3044 59.0562 66.18C58.8449 66.0576 58.6407 65.9229 58.4209 65.8163C58.2063 65.6994 57.9861 65.5951 57.763 65.4963C57.5425 65.3986 57.3113 65.3031 57.0948 65.2303L57.2587 64.7304C57.4726 64.8199 57.6927 64.8924 57.9007 64.9971C58.1097 65.0989 58.3184 65.2014 58.5145 65.3301C58.7184 65.4445 58.9008 65.5936 59.0891 65.732C59.2623 65.89 59.4443 66.0391 59.5968 66.2185C59.761 66.3861 59.8976 66.5782 60.0371 66.7657C60.1643 66.9626 60.289 67.1602 60.39 67.3711C60.4959 67.5783 60.5836 67.7955 60.655 68.0152C60.7319 68.2343 60.7859 68.4589 60.8388 68.6827C60.8832 68.9084 60.9221 69.1345 60.9458 69.362C60.9691 69.5892 60.9872 69.8171 60.9894 70.0447C60.9972 70.2722 60.9898 70.4994 60.9783 70.7255C60.9669 70.9516 60.9465 71.1773 60.9147 71.4007C60.7834 72.2939 60.5702 73.1734 60.2232 73.9989Z" fill="#965450"/>
<path d="M53.982 90.7114C52.9719 90.28 52.0069 89.7476 51.0749 89.1656C50.1443 88.581 49.2508 87.9353 48.4072 87.229C46.7218 85.8171 45.2292 84.1513 44.1096 82.244C42.9922 80.3385 42.2766 78.1917 42.0524 75.9884C41.9377 74.8876 41.9385 73.7747 42.0439 72.6736C42.1542 71.5699 42.3369 70.4839 42.6551 69.4135C42.9641 68.3483 43.3922 67.3163 43.9379 66.3484C44.4837 65.3812 45.1386 64.4751 45.8864 63.6552C47.3793 62.0076 49.2134 60.7 51.177 59.6855C53.1439 58.6683 55.2448 57.9361 57.3856 57.4018C58.4571 57.1365 59.5412 56.9223 60.6323 56.7573C61.7257 56.5952 62.8183 56.4709 63.9327 56.428L63.9468 56.8183C62.8645 56.886 61.7745 57.0059 60.6941 57.1532C59.6126 57.3027 58.5352 57.4821 57.4666 57.7023C55.3302 58.1426 53.2172 58.7209 51.201 59.5426C50.1946 59.9548 49.2134 60.4299 48.2877 60.9941C47.3615 61.5558 46.495 62.2189 45.7513 62.9973C45.0183 63.7777 44.4548 64.7163 44.0271 65.7068C43.599 66.6995 43.2993 67.7485 43.101 68.8152C42.7044 70.9516 42.7118 73.1586 43.0274 75.312C43.347 77.4669 43.9934 79.5755 44.9458 81.5377C45.4231 82.5182 45.9715 83.4646 46.5975 84.3593C47.225 85.2521 47.9206 86.099 48.6895 86.876C50.2191 88.4393 52.0243 89.728 53.982 90.7114ZM53.982 90.7114C52.0095 89.7583 50.1795 88.4951 48.6181 86.9474C47.0533 85.4049 45.7491 83.5963 44.7671 81.6253C43.7885 79.6525 43.1165 77.528 42.7743 75.3505C42.4361 73.1742 42.4084 70.9383 42.7932 68.759C42.9856 67.6708 43.2812 66.5956 43.7207 65.5748C44.1581 64.5554 44.7349 63.5834 45.5023 62.7616C46.2712 61.9521 47.1595 61.2713 48.1045 60.6945C49.0487 60.1154 50.0452 59.6303 51.0649 59.2096C53.1073 58.3716 55.2388 57.7833 57.3915 57.3337C58.4686 57.1091 59.5534 56.9256 60.6423 56.7724C61.7327 56.6219 62.8224 56.4972 63.9272 56.428L63.9416 56.8183C62.8612 56.8572 61.7682 56.9778 60.6893 57.1351C59.6089 57.2956 58.5359 57.505 57.4751 57.7644C55.3565 58.2872 53.2797 59.0061 51.3405 60.0026C49.4047 60.9964 47.6028 62.2758 46.1383 63.8835C45.405 64.6842 44.763 65.5677 44.2273 66.5112C43.6941 67.4566 43.2627 68.4593 42.9534 69.5016C42.637 70.5346 42.4431 71.6224 42.3266 72.7013C42.2134 73.7843 42.2034 74.8791 42.307 75.9629C42.509 78.1322 43.1942 80.2519 44.282 82.1445C45.3635 84.0426 46.8154 85.7216 48.4727 87.1524C49.3022 87.8684 50.1828 88.5255 51.1022 89.123C52.0232 89.718 52.9789 90.2649 53.982 90.7114Z" fill="#965450"/>
<path d="M58.1011 56.6233C58.1011 56.6233 58.5088 56.4487 59.247 56.2093C59.9859 55.9755 61.054 55.6654 62.3672 55.4301C63.6788 55.204 65.2354 55.0168 66.9104 55.076C67.7466 55.1111 68.6106 55.1933 69.4775 55.3561C70.341 55.5267 71.215 55.7483 72.0475 56.0876C72.8889 56.4058 73.6736 56.8561 74.4147 57.3367C75.1329 57.8517 75.8137 58.4023 76.378 59.0276C76.5208 59.1819 76.6625 59.3351 76.8031 59.4864C76.9363 59.6436 77.0551 59.8109 77.1775 59.9718C77.2989 60.1335 77.4188 60.2934 77.5372 60.4514C77.6467 60.6153 77.7447 60.784 77.8469 60.9468C78.272 61.5884 78.5702 62.2529 78.8614 62.853C79.1041 63.4754 79.355 64.0352 79.4897 64.5613C79.6417 65.0812 79.7938 65.5274 79.8634 65.9103C80.0262 66.6681 80.119 67.1014 80.119 67.1014C80.119 67.1014 79.9988 66.6755 79.7886 65.9303C79.7002 65.5537 79.5259 65.1163 79.3494 64.609C79.1889 64.0955 78.9114 63.5542 78.6579 62.9463C78.3519 62.3635 78.0393 61.7193 77.6034 61.104C77.4983 60.9479 77.3977 60.7858 77.2859 60.629C77.1653 60.4784 77.0436 60.3263 76.9204 60.1724C76.795 60.0203 76.6766 59.8597 76.5463 59.7069C76.4083 59.5611 76.2688 59.4139 76.1282 59.2651C75.5743 58.6624 74.908 58.1363 74.2075 57.6438C73.4842 57.1857 72.7205 56.758 71.9013 56.4561C71.0973 56.1183 70.2493 55.8941 69.4075 55.7191C68.5628 55.5514 67.717 55.4623 66.8963 55.4194C66.0749 55.392 65.2783 55.3838 64.5239 55.4345C63.7687 55.4719 63.058 55.5592 62.4034 55.6491C61.7508 55.7524 61.1521 55.8504 60.626 55.9636C60.0987 56.0713 59.6432 56.1845 59.2692 56.2822C58.521 56.4813 58.1011 56.6233 58.1011 56.6233Z" fill="#965450"/>
<path d="M53.7881 76.7362C53.7881 76.7362 52.8894 69.6518 48.1297 72.4745C43.37 75.2972 49.7081 86.886 53.5946 83.1013C55.3561 81.3852 53.7881 76.7362 53.7881 76.7362Z" fill="#FFAC9D"/>
<path d="M73.3544 78.6413C73.3359 79.0509 73.3289 79.4557 73.3255 79.8586C73.3263 80.2615 73.3229 80.6619 73.3433 81.0607C73.3522 81.4588 73.377 81.8559 73.4136 82.2492C73.4306 82.446 73.441 82.6432 73.4724 82.8378L73.5497 83.4221L73.6504 84.0004C73.6811 84.1939 73.7418 84.3793 73.7821 84.5698L73.8446 84.8551L73.9301 85.1329C73.9904 85.3168 74.0363 85.5074 74.1084 85.6865L74.3175 86.2281C74.3815 86.412 74.4858 86.5752 74.5676 86.7506C74.6523 86.9249 74.7312 87.1036 74.8425 87.2623C74.9443 87.4273 75.0505 87.5901 75.1496 87.7599L75.3405 88.0855L75.0383 88.1718C74.3094 88.3793 73.5756 88.5751 72.8238 88.7216C73.4868 88.3379 74.168 88.003 74.854 87.68L74.7426 88.0918C74.6061 87.9327 74.4759 87.7673 74.3415 87.6034C74.2009 87.4432 74.0866 87.2664 73.9782 87.0847C73.8742 86.9015 73.7473 86.7276 73.6622 86.5345L73.3947 85.9595C73.3115 85.7653 73.256 85.5618 73.1853 85.3631L73.0854 85.063L73.0095 84.7574C72.9648 84.5524 72.9096 84.3489 72.8804 84.1417L72.7887 83.5216C72.7613 83.3148 72.7554 83.1061 72.7413 82.8985C72.7239 82.6909 72.728 82.483 72.7258 82.2758C72.7198 82.0686 72.7283 81.8614 72.745 81.6549C72.7591 81.4485 72.7687 81.2424 72.7946 81.0374C72.8464 80.6278 72.9037 80.2201 73.0007 79.8197C73.0876 79.4194 73.2045 79.0231 73.3544 78.6413Z" fill="#FC6A5A"/>
<path d="M70.9671 72.1418C70.9671 72.1418 71.0392 72.3283 71.0544 72.6791C71.0588 72.853 71.0611 73.0717 71.0096 73.3155C70.9708 73.563 70.8864 73.8387 70.7484 74.1228C70.6863 74.269 70.5912 74.4033 70.5057 74.5542C70.4102 74.6967 70.2922 74.8295 70.1771 74.9742C70.048 75.1011 69.9122 75.2336 69.7668 75.359C69.6151 75.4726 69.4567 75.5906 69.2906 75.6979C69.1204 75.7949 68.9439 75.8899 68.7637 75.9836C68.5795 76.0598 68.3919 76.1353 68.2002 76.207C68.0086 76.2762 67.8128 76.3225 67.6156 76.375C67.5131 76.3994 67.4269 76.4272 67.31 76.449L67.0307 76.5019C66.6684 76.5685 66.2537 76.6251 65.8659 76.6544C65.4778 76.6854 65.0904 76.6925 64.7215 76.6758C64.3522 76.6644 63.9996 76.6229 63.6984 76.6011C63.3943 76.5781 63.1468 76.5763 62.9114 76.627C62.7956 76.6603 62.6809 76.6914 62.5722 76.7413C62.46 76.7798 62.3553 76.8323 62.2569 76.8852C62.0575 76.9826 61.888 77.0954 61.7404 77.1735C61.4581 77.3522 61.2842 77.4476 61.2842 77.4476C61.2842 77.4476 61.3833 77.2797 61.5802 76.9985C61.6901 76.8671 61.8033 76.6891 61.9827 76.5201C62.1489 76.3406 62.3661 76.1486 62.6602 75.9895C62.9562 75.8307 63.3262 75.7386 63.6733 75.7027C64.024 75.6631 64.3593 75.648 64.7015 75.6173C65.0441 75.5917 65.3908 75.5477 65.7456 75.5026C66.0997 75.4493 66.4379 75.4038 66.8209 75.3272L67.1013 75.2794C67.1712 75.268 67.2671 75.241 67.3485 75.2228C67.5161 75.1777 67.6922 75.1555 67.8539 75.1041C68.0145 75.0504 68.1754 75.0019 68.3364 74.9553C68.487 74.8921 68.6353 74.8284 68.7859 74.7711C68.9291 74.7041 69.0601 74.6234 69.1996 74.5576C69.3291 74.4802 69.4464 74.3914 69.5718 74.3152C69.6828 74.2227 69.7912 74.1324 69.8956 74.0455C69.9881 73.9471 70.0954 73.8605 70.1723 73.7584C70.3336 73.5589 70.4794 73.3621 70.5801 73.1686C70.6866 72.9777 70.764 72.7975 70.8213 72.6447C70.9338 72.3376 70.9671 72.1418 70.9671 72.1418Z" fill="#76413B"/>
<path d="M82.5067 79.5696C82.5067 79.5696 82.3502 79.5781 82.0835 79.57C81.9503 79.5648 81.7875 79.5622 81.605 79.5452C81.4223 79.5415 81.2125 79.4893 80.9842 79.4379C80.7592 79.3806 80.4925 79.3425 80.2494 79.237C80.0015 79.1382 79.7303 79.0457 79.4694 78.911C79.2141 78.7671 78.9392 78.6291 78.6861 78.4496C78.4393 78.262 78.1729 78.0874 77.948 77.8654C77.7193 77.6471 77.4881 77.4314 77.2979 77.1842C77.0907 76.9526 76.922 76.6966 76.7625 76.4494C76.6019 76.203 76.478 75.9447 76.3603 75.705C76.2548 75.4567 76.1594 75.2232 76.0965 74.9968C76.0199 74.7774 75.9781 74.5658 75.9415 74.3808C75.9041 74.1958 75.8885 74.0304 75.8774 73.8953C75.856 73.6245 75.8749 73.468 75.8749 73.468C75.8749 73.468 75.9577 73.596 76.1028 73.8198C76.2497 74.0385 76.4546 74.3445 76.7111 74.6927C76.8332 74.8699 76.9878 75.0467 77.131 75.2417C77.2875 75.4282 77.4422 75.6295 77.6172 75.8241C77.7067 75.9196 77.7926 76.0202 77.8803 76.1209C77.9676 76.2219 78.0697 76.3118 78.1611 76.412C78.345 76.6122 78.5488 76.7972 78.7516 76.983C78.9422 77.1828 79.1741 77.3345 79.3736 77.5198C79.5837 77.6922 79.8076 77.8399 80.0115 78.0053C80.2224 78.1596 80.4414 78.2887 80.6401 78.4315C80.8384 78.581 81.0378 78.6772 81.2188 78.7971C81.4052 78.9021 81.5625 79.0294 81.732 79.1086C81.8955 79.1919 82.0342 79.2762 82.1497 79.3432C82.3791 79.479 82.5067 79.5696 82.5067 79.5696Z" fill="#76413B"/>
<path d="M70.9672 93.6296C70.9672 93.6296 67.2535 85.2732 62.4783 92.0379L70.9672 93.6296Z" fill="white"/>
<path d="M75.6114 81.958C75.5126 83.4565 75.877 84.7004 76.425 84.7367C76.9733 84.7729 77.4976 83.5874 77.5964 82.0889C77.6952 80.5904 77.3308 79.3465 76.7824 79.3102C76.2348 79.2744 75.7102 80.4595 75.6114 81.958Z" fill="#352C38"/>
<path d="M65.3982 81.1621C65.2994 82.6606 65.6639 83.9045 66.2119 83.9408C66.7602 83.977 67.2845 82.7915 67.3833 81.293C67.4821 79.7945 67.1176 78.5506 66.5693 78.5143C66.0217 78.4785 65.497 79.6639 65.3982 81.1621Z" fill="#352C38"/>
<path d="M68.049 83.1508C68.049 83.1508 68.0312 83.2552 67.982 83.4328C67.9291 83.6089 67.8588 83.8646 67.7378 84.1583C67.6201 84.4532 67.4596 84.7899 67.242 85.1299C67.0274 85.4703 66.7469 85.8141 66.374 86.0809C66.1842 86.2089 65.9629 86.3065 65.728 86.3484C65.4923 86.3983 65.2473 86.3491 65.0431 86.2714C64.8326 86.1959 64.6664 86.0649 64.5247 85.9384C64.3826 85.8108 64.2654 85.6757 64.1736 85.5429C64.0752 85.4141 63.9986 85.2883 63.9398 85.1725C63.875 85.0604 63.8239 84.9605 63.7869 84.8754C63.71 84.707 63.6719 84.6094 63.6719 84.6094C63.6719 84.6094 63.7414 84.6904 63.8528 84.8347C63.9608 84.9805 64.1318 85.1799 64.3468 85.3938C64.3978 85.4504 64.4566 85.5025 64.5195 85.5529C64.5813 85.6043 64.6402 85.6639 64.7119 85.7072C64.7808 85.7541 64.8488 85.8071 64.9273 85.8404C65.002 85.8825 65.0794 85.9169 65.1608 85.9406C65.3221 85.9909 65.4923 86.0069 65.6606 85.9695C65.829 85.9351 65.9958 85.8596 66.1498 85.7516C66.3044 85.6439 66.4521 85.5173 66.5838 85.3734C66.7144 85.2295 66.8435 85.0841 66.9545 84.9298C67.1817 84.626 67.3741 84.3215 67.5339 84.0562C67.6912 83.7894 67.8262 83.5652 67.9102 83.4032C67.9987 83.243 68.049 83.1508 68.049 83.1508Z" fill="#FC6A5A"/>
<path d="M74.946 84.0795C74.946 84.0795 74.9845 84.1783 75.0515 84.3515C75.114 84.525 75.2187 84.7677 75.3394 85.0567C75.4633 85.3442 75.6106 85.6776 75.7959 86.0128C75.8847 86.1826 75.9943 86.345 76.1053 86.5049C76.2174 86.664 76.3502 86.8068 76.4941 86.9156C76.6362 87.0273 76.7927 87.0954 76.9511 87.0972C77.1094 87.095 77.2719 87.034 77.4228 86.9467C77.5701 86.849 77.7088 86.7354 77.8317 86.6137C77.9527 86.4897 78.0651 86.3672 78.1621 86.2451C78.2638 86.1282 78.3456 86.0098 78.4263 85.9103C78.5069 85.8108 78.5683 85.7171 78.6209 85.6417C78.7271 85.4907 78.7933 85.406 78.7933 85.406C78.7933 85.406 78.7589 85.5062 78.689 85.679C78.6531 85.7649 78.612 85.8707 78.5532 85.9869C78.4951 86.1034 78.4385 86.2407 78.3493 86.3761C78.3071 86.4457 78.2631 86.5178 78.2176 86.5926C78.1643 86.6632 78.1095 86.7365 78.0529 86.812C77.9338 86.9592 77.7939 87.1087 77.6174 87.2382C77.4358 87.3577 77.2167 87.4765 76.9544 87.4813C76.6936 87.4857 76.4438 87.3773 76.2547 87.2327C75.8773 86.9311 75.655 86.5378 75.4844 86.1697C75.3134 85.7993 75.2021 85.4396 75.1244 85.1288C75.0441 84.8188 75.0075 84.5535 74.9775 84.3703C74.9509 84.1861 74.946 84.0795 74.946 84.0795Z" fill="#FC6A5A"/>
<path d="M51.7345 82.355C51.5617 82.167 51.4004 81.9646 51.2728 81.7389C51.2102 81.6253 51.1533 81.508 51.1081 81.3837C51.0852 81.3219 51.073 81.2553 51.0548 81.1909C51.0386 81.1258 51.0411 81.0555 51.0337 80.9871C51.0308 80.9183 51.0515 80.8476 51.0611 80.7773C51.0807 80.7092 51.1203 80.6456 51.1518 80.5793C51.194 80.5216 51.2487 80.4728 51.2987 80.4195C51.3512 80.3699 51.4174 80.3451 51.4774 80.3074C51.5987 80.2312 51.7338 80.2156 51.8629 80.1675L52.2577 80.1091L52.1419 80.2371C52.1005 79.6754 52.0383 79.1108 51.9613 78.5517C51.8944 77.9908 51.8089 77.4329 51.7009 76.8808C51.5891 76.3303 51.4585 75.7827 51.2698 75.2624C51.1736 75.0038 51.0778 74.7452 50.9457 74.5117C50.8169 74.2786 50.6608 74.0607 50.4673 73.9216C50.3718 73.849 50.2656 73.8109 50.158 73.7876C50.105 73.7895 50.041 73.7761 49.997 73.7847L49.7857 73.8139C49.6348 73.8242 49.5352 73.8812 49.4083 73.9112C49.2885 73.9537 49.1693 74.0192 49.0513 74.0758C48.8297 74.2194 48.6117 74.3763 48.4356 74.5798L48.3013 74.7304L48.1877 74.8972C48.1052 75.0053 48.0493 75.1285 47.9883 75.2499C47.8691 75.4941 47.7999 75.759 47.7515 76.0283C47.7411 76.1641 47.7278 76.301 47.7248 76.4379C47.7352 76.5741 47.7308 76.7136 47.753 76.8497C47.7944 77.1232 47.8725 77.3922 47.9861 77.6486C48.0515 77.7721 48.1085 77.902 48.1814 78.0223L48.4186 78.3756L48.1407 78.0497C48.0512 77.9375 47.9853 77.8091 47.9065 77.6882C47.7678 77.4354 47.6619 77.1635 47.5935 76.8786C47.558 76.7369 47.5495 76.59 47.5261 76.4442C47.5213 76.2977 47.5276 76.1501 47.5317 76.0024C47.5676 75.7098 47.6283 75.4175 47.7444 75.1433C47.804 75.0071 47.8595 74.868 47.9435 74.7441L48.0604 74.5524L48.2007 74.3767C48.3849 74.1384 48.6228 73.9456 48.8774 73.7813C49.0128 73.7118 49.1438 73.6374 49.2899 73.5826C49.4372 73.5401 49.5993 73.4709 49.7343 73.4609L49.9448 73.428C50.0414 73.4121 50.1202 73.4265 50.209 73.4272C50.3796 73.4565 50.5453 73.5194 50.6793 73.6163C50.9516 73.8069 51.1329 74.0647 51.2835 74.323C51.433 74.5842 51.5492 74.8554 51.6424 75.1318C51.8315 75.6846 51.955 76.2485 52.0598 76.8131C52.1604 77.3785 52.2374 77.946 52.2951 78.5147C52.3435 79.0853 52.3765 79.654 52.3887 80.2278L52.3913 80.3448L52.2729 80.3559L51.9077 80.3903C51.7971 80.4269 51.6679 80.435 51.5699 80.4928C51.521 80.5205 51.4626 80.539 51.42 80.5734C51.3812 80.6112 51.3346 80.6437 51.2979 80.684C51.2731 80.7321 51.2372 80.7754 51.2173 80.8269C51.2073 80.882 51.1836 80.9349 51.181 80.993C51.1832 81.0515 51.1744 81.1107 51.184 81.1702C51.1958 81.2298 51.201 81.2905 51.2173 81.35C51.2495 81.4696 51.2939 81.5861 51.3453 81.7012C51.4526 81.9291 51.5825 82.1496 51.7345 82.355Z" fill="#FC6A5A"/>
<path d="M107.978 61.0537C97.1568 38.3742 106.394 10.9605 145.008 20.0484C145.008 20.0484 169.244 27.0629 164.281 53.3329C160.05 75.7327 129.97 82.0312 114.489 69.3417C110.415 72.1163 99.87 78.9132 111.592 66.5434C110.178 64.9291 108.955 63.1024 107.978 61.0537Z" fill="#FC6A5A"/>
<path d="M137.858 47.444L132.172 44.7385C132.658 43.5127 133.2 42.5489 133.794 41.8485C134.388 41.1477 134.995 40.6178 135.614 40.2582C136.231 39.8989 136.846 39.6621 137.457 39.5474C138.07 39.4327 138.648 39.3576 139.195 39.3214C139.741 39.2855 140.233 39.2348 140.671 39.1678C141.108 39.1008 141.468 38.9284 141.752 38.6506C141.926 38.4859 142.06 38.2639 142.151 37.9846C142.243 37.7048 142.247 37.4003 142.163 37.0718C142.079 36.7428 141.882 36.4047 141.572 36.0587C141.262 35.7116 140.799 35.3912 140.183 35.0982C139.779 34.9062 139.282 34.7145 138.692 34.5232C138.103 34.3319 137.469 34.1676 136.791 34.0315C136.113 33.8942 135.428 33.7958 134.735 33.7336C134.043 33.6729 133.394 33.6704 132.789 33.7262L135.187 26.7791C135.718 26.7299 136.308 26.6973 136.956 26.6822C137.602 26.6663 138.289 26.7044 139.016 26.7958C139.742 26.8868 140.508 27.0411 141.312 27.259C142.117 27.4766 142.945 27.7881 143.797 28.1936C145.177 28.85 146.39 29.6614 147.436 30.6264C148.483 31.5924 149.29 32.6636 149.858 33.8417C150.425 35.0194 150.721 36.2774 150.744 37.6164C150.768 38.9547 150.446 40.3248 149.779 41.7267C149.271 42.7927 148.713 43.5753 148.104 44.0766C147.494 44.5772 146.855 44.9235 146.187 45.1137C145.518 45.3046 144.825 45.4016 144.109 45.4045C143.392 45.4075 142.678 45.4426 141.965 45.5085C141.253 45.5758 140.549 45.7398 139.854 46.0002C139.16 46.2618 138.494 46.7428 137.858 47.444ZM136.587 52.2854C136.352 52.7794 136.038 53.1934 135.644 53.529C135.25 53.8646 134.818 54.1158 134.347 54.2838C133.875 54.4507 133.381 54.5261 132.868 54.508C132.353 54.4906 131.855 54.3667 131.373 54.1376C130.879 53.9027 130.464 53.5919 130.126 53.2034C129.787 52.816 129.534 52.3857 129.367 51.9147C129.199 51.4422 129.124 50.9501 129.142 50.4351C129.16 49.9211 129.286 49.4176 129.521 48.9236C129.75 48.4415 130.062 48.0256 130.454 47.676C130.848 47.3267 131.28 47.0677 131.752 46.9012C132.223 46.7328 132.717 46.6559 133.235 46.6677C133.751 46.6799 134.257 46.8031 134.75 47.0381C135.232 47.2675 135.641 47.579 135.977 47.9723C136.312 48.366 136.564 48.7978 136.732 49.2703C136.899 49.7413 136.974 50.2415 136.957 50.7695C136.939 51.2979 136.816 51.8037 136.587 52.2854Z" fill="white"/>
<path d="M141.982 62.1859L138.627 58.7404C139.3 57.9916 139.944 57.4447 140.555 57.1014C141.167 56.7573 141.742 56.5386 142.28 56.445C142.817 56.3514 143.321 56.3451 143.789 56.425C144.257 56.5053 144.692 56.6048 145.093 56.7243C145.494 56.8435 145.859 56.9378 146.191 57.0059C146.522 57.074 146.826 57.0458 147.102 56.9223C147.271 56.8505 147.425 56.7269 147.565 56.5512C147.705 56.375 147.788 56.1582 147.815 55.9007C147.842 55.6428 147.791 55.3483 147.661 55.0186C147.531 54.6878 147.284 54.3356 146.921 53.9619C146.682 53.7173 146.378 53.4483 146.006 53.1549C145.635 52.8619 145.224 52.5759 144.775 52.2988C144.326 52.0209 143.861 51.7685 143.381 51.5403C142.901 51.3131 142.437 51.1392 141.99 51.0189L145.549 46.6799C145.943 46.7858 146.374 46.9189 146.841 47.0799C147.308 47.2401 147.79 47.4492 148.286 47.7078C148.782 47.9657 149.29 48.2794 149.808 48.6483C150.326 49.0172 150.837 49.4601 151.34 49.9766C152.154 50.8125 152.807 51.7153 153.301 52.6839C153.794 53.6533 154.088 54.6346 154.182 55.6288C154.276 56.6226 154.154 57.602 153.816 58.5669C153.477 59.5315 152.884 60.4276 152.034 61.2546C151.389 61.8836 150.781 62.2958 150.212 62.493C149.642 62.6898 149.093 62.7683 148.564 62.7272C148.034 62.6869 147.512 62.5722 146.999 62.3842C146.484 62.1963 145.964 62.032 145.436 61.8903C144.908 61.7497 144.36 61.6801 143.794 61.6827C143.227 61.6845 142.623 61.8522 141.982 62.1859ZM139.787 65.3157C139.487 65.6069 139.152 65.8204 138.782 65.9562C138.411 66.092 138.035 66.1571 137.653 66.1527C137.27 66.1467 136.897 66.0701 136.534 65.921C136.17 65.7723 135.846 65.5514 135.562 65.2595C135.27 64.9602 135.055 64.6272 134.916 64.2597C134.776 63.8923 134.71 63.5171 134.714 63.1357C134.72 62.7527 134.796 62.3805 134.946 62.0164C135.095 61.6531 135.319 61.326 135.618 61.0344C135.91 60.7503 136.244 60.5349 136.617 60.3888C136.992 60.2434 137.37 60.1723 137.752 60.1783C138.134 60.1827 138.508 60.2586 138.876 60.4043C139.242 60.5501 139.572 60.7721 139.863 61.0715C140.147 61.3634 140.357 61.6949 140.493 62.066C140.629 62.4368 140.695 62.813 140.689 63.1956C140.684 63.5771 140.605 63.9552 140.453 64.3289C140.301 64.7019 140.079 65.0312 139.787 65.3157Z" fill="white"/>
<path d="M122.911 50.8206L118.554 51.0315C118.45 50.1239 118.464 49.358 118.598 48.736C118.731 48.1137 118.928 47.5912 119.188 47.1694C119.447 46.748 119.745 46.4017 120.08 46.1316C120.416 45.8611 120.745 45.6254 121.067 45.4245C121.388 45.224 121.672 45.0316 121.918 44.8473C122.162 44.6634 122.326 44.4399 122.408 44.1776C122.461 44.02 122.469 43.8409 122.434 43.6404C122.398 43.4395 122.301 43.2526 122.142 43.0794C121.982 42.9063 121.751 42.7646 121.449 42.6547C121.146 42.5444 120.758 42.5004 120.286 42.5233C119.977 42.5381 119.611 42.584 119.188 42.6606C118.765 42.7368 118.324 42.8441 117.866 42.9829C117.408 43.1209 116.957 43.2852 116.514 43.4742C116.071 43.664 115.674 43.8749 115.323 44.1073L114.511 39.0812C114.82 38.877 115.169 38.6639 115.559 38.4426C115.949 38.2213 116.38 38.0193 116.854 37.8373C117.328 37.6549 117.846 37.4984 118.408 37.3678C118.97 37.2371 119.578 37.1561 120.231 37.1243C121.288 37.0732 122.295 37.1709 123.249 37.4173C124.205 37.6641 125.048 38.0537 125.78 38.5869C126.512 39.1201 127.105 39.7913 127.558 40.6008C128.011 41.41 128.263 42.352 128.315 43.4261C128.354 44.2427 128.27 44.9035 128.062 45.409C127.854 45.9144 127.577 46.3347 127.231 46.6699C126.886 47.0055 126.494 47.2915 126.058 47.5279C125.622 47.7647 125.197 48.0197 124.784 48.2939C124.371 48.568 123.995 48.8988 123.656 49.2854C123.319 49.6725 123.069 50.1845 122.911 50.8206ZM123.721 54.1928C123.739 54.5713 123.683 54.9268 123.553 55.2606C123.422 55.5947 123.24 55.8892 123.008 56.1464C122.774 56.4028 122.498 56.6103 122.178 56.7676C121.858 56.9256 121.514 57.0133 121.145 57.031C120.766 57.0492 120.411 56.9955 120.077 56.8693C119.743 56.7439 119.449 56.5637 119.192 56.3314C118.935 56.0979 118.728 55.8219 118.57 55.5018C118.413 55.1821 118.325 54.8332 118.306 54.4551C118.289 54.0858 118.343 53.7299 118.468 53.3876C118.594 53.0454 118.773 52.7461 119.006 52.4897C119.239 52.2325 119.515 52.0235 119.835 51.8614C120.154 51.6997 120.503 51.6094 120.881 51.5909C121.25 51.5732 121.602 51.6294 121.936 51.7596C122.269 51.8903 122.565 52.0716 122.822 52.305C123.078 52.5378 123.288 52.8186 123.45 53.1464C123.612 53.4742 123.703 53.8235 123.721 54.1928Z" fill="white"/>
</svg>
