<svg width="185" height="185" viewBox="0 0 185 185" fill="none" xmlns="http://www.w3.org/2000/svg">
<path d="M91.8064 166.92H17.5682C17.5682 166.92 -6.45557 48.1784 55.0103 23.4843C103.823 3.87352 92.9261 49.5892 145.052 65.5166C208.675 84.9568 161.767 166.395 161.767 166.395L91.8064 166.92Z" fill="#FDEDEE"/>
<path d="M125.791 26.9719C131.213 29.6988 142.677 37.3205 140.447 43.5106C138.454 49.6637 127.932 42.61 124.165 39.6237C121.261 37.3367 114.683 28.7117 122.47 30.3526C126.483 31.1548 133.538 38.6321 134.31 42.3258C137.4 57.1003 113.215 41.1004 116.139 38.3775C120.25 34.396 137.015 54.8955 123.484 52.1279C120.023 51.4781 112.257 44.4692 119.02 46.3903C124.603 48.1381 124.418 54.8425 119.534 55.4886" stroke="#FC6A5A" stroke-width="1.8857" stroke-miterlimit="10"/>
<path d="M90.6547 58.8185C90.6547 58.8185 89.6265 71.3645 95.7966 73.2156C101.967 75.0667 123.706 95.2624 129.115 90.2863C139.399 80.8254 140.016 79.7972 135.697 75.4782C132.374 72.1556 98.882 62.1093 98.882 62.1093C98.882 62.1093 95.7969 54.2938 91.0665 54.2938C86.3357 54.2938 90.6547 58.8185 90.6547 58.8185Z" fill="#965450"/>
<path d="M96.447 57.7855C95.1039 55.9799 93.2628 54.2938 91.0657 54.2938C86.3353 54.2938 90.6543 58.8185 90.6543 58.8185C90.6543 58.8185 89.7352 70.0788 94.8893 72.8341C95.4539 67.8225 95.9897 62.8079 96.447 57.7855Z" fill="#76413B"/>
<path d="M80.1655 97.6907C80.1655 97.6907 121.711 72.8046 126.236 74.2442C134.107 76.7488 135.697 84.1166 135.697 84.1166C135.697 84.1166 124.591 98.5136 103.612 109.62C82.6334 120.726 80.1655 97.6907 80.1655 97.6907Z" fill="#965450"/>
<path d="M101.655 85.3442C90.6476 91.4119 80.1655 97.6908 80.1655 97.6908C80.1655 97.6908 82.6338 120.726 103.612 109.62C107.531 107.545 111.105 105.355 114.328 103.166C110.455 96.9955 106.005 91.1518 101.655 85.3442Z" fill="#76413B"/>
<path d="M81.8109 91.726C81.8109 91.726 96.208 85.1444 99.9098 84.1162C99.9098 84.1162 108.137 103.244 109.165 111.471C109.165 111.471 96.6191 120.314 86.9524 124.428C77.2858 128.542 81.8109 91.726 81.8109 91.726Z" fill="#6F96BD"/>
<path d="M81.1752 98.4423C80.3959 108.856 79.9394 127.412 86.9523 124.428C91.3417 122.56 96.3219 119.718 100.454 117.171C96.1309 110.564 91.5833 104.111 86.2497 98.3035C84.5473 98.1814 82.8576 98.2602 81.1752 98.4423Z" fill="#4F7DA3"/>
<path d="M59.8039 77.7404C59.8039 77.7404 61.0379 89.0524 55.0735 92.5489C49.1091 96.0454 37.1799 89.6695 34.0948 105.917C31.0098 122.166 84.0729 96.8679 84.0729 96.8679L77.6971 76.9178L59.8039 77.7404Z" fill="#965450"/>
<path d="M62.066 77.7478C62.0397 81.1062 61.5465 84.5946 62.1104 87.9294C62.6288 90.9963 64.0588 93.5505 65.8851 96.0269C67.5942 98.3446 69.5589 100.503 71.7992 102.265C78.8607 99.3528 84.0732 96.8682 84.0732 96.8682L77.6974 76.9182L62.0449 77.6379C62.0538 77.6726 62.0664 77.7059 62.066 77.7478Z" fill="#76413B"/>
<path d="M53.0168 92.7546C53.0168 92.7546 65.9742 104.683 79.9598 99.0276L90.8604 90.4924C90.8604 90.4924 93.1955 120.887 98.2645 153.428C102.412 180.051 47.0524 154.868 47.0524 154.868C47.0524 154.868 28.7478 111.677 34.095 101.187C39.4423 90.6978 53.0168 92.7546 53.0168 92.7546Z" fill="#6F96BD"/>
<path d="M97.7387 150.172C96.6139 150.131 95.4898 150.061 94.3669 149.947C84.9056 148.987 75.9631 144.865 68.3333 139.282C60.5837 133.611 54.3466 126.222 48.7866 118.445C44.1031 111.894 39.9395 104.968 36.6191 97.6367C35.6671 98.6228 34.8065 99.7909 34.0946 101.187C28.747 111.676 47.052 154.868 47.052 154.868C47.052 154.868 101.402 176.516 98.2641 153.428C98.1161 152.335 97.9104 151.255 97.7387 150.172Z" fill="#4F7DA3"/>
<path d="M50.9599 123.4C50.9599 123.4 52.1938 141.498 51.3713 147.052C51.3713 147.052 89.041 153.342 96.8565 155.81C104.672 158.278 106.957 165.405 106.957 165.405C106.957 165.405 48.0802 167.825 36.7685 164.945C25.4565 162.066 28.1305 120.109 28.1305 120.109L50.9599 123.4Z" fill="#965450"/>
<path d="M51.5223 134.44C51.3211 128.697 50.9599 123.4 50.9599 123.4L28.1306 120.109C28.1306 120.109 27.8105 125.134 27.8608 131.825C35.158 134.701 43.5092 135.219 51.5223 134.44Z" fill="#76413B"/>
<path d="M41.9104 94.4C41.9104 94.4 23.8114 97.2794 25.4568 127.925C25.4568 127.925 41.9104 133.683 55.2792 129.57C55.2792 129.57 56.3074 93.9886 41.9104 94.4Z" fill="#6F96BD"/>
<path d="M80.3709 48.3295C80.3709 48.3295 97.853 48.1237 94.7679 63.138C91.6829 78.1518 92.5058 90.081 88.8035 93.3718C85.1013 96.6626 63.5059 97.8965 62.8891 77.1236C62.2723 56.3507 65.9738 47.7123 80.3709 48.3295Z" fill="#965450"/>
<path d="M63.0946 71.3646C63.0946 71.3646 64.3286 64.3716 58.5699 64.5773C52.8112 64.783 57.3359 81.0309 61.8607 78.7687C66.3854 76.5065 63.0946 71.3646 63.0946 71.3646Z" fill="#965450"/>
<path d="M55.7928 69.1023C55.7928 69.1023 55.7928 66.0173 58.2607 64.9891C59.8716 64.3179 62.1275 65.7601 62.5797 67.9713C63.505 72.496 56.821 90.3896 68.9555 96.7654L68.8527 95.84C68.8527 95.84 72.452 99.2337 79.9589 99.028L80.1647 97.6911L80.5761 99.2337C80.5761 99.2337 89.9341 99.0279 90.9624 92.9607L90.4481 95.3257C90.4481 95.3257 92.6078 94.6057 93.0188 89.9781C93.4303 85.3505 92.4017 80.7229 92.4017 80.7229C92.4017 80.7229 90.4477 90.4924 89.008 90.1838C87.5684 89.8753 90.1391 80.1058 87.6712 79.5919C85.2033 79.0776 71.2177 76.1982 71.2177 81.3401C71.2177 81.3401 73.7885 89.567 70.4977 89.0527C67.2069 88.5384 65.4586 87.2016 65.8701 78.3579C66.2815 69.5142 67.8241 60.5672 67.8241 60.5672C67.8241 60.5672 72.7602 61.3897 73.2742 53.9856C73.2742 53.9856 80.2671 62.9322 90.962 61.904C90.962 61.904 83.7636 60.8758 80.4729 57.585C80.4729 57.585 93.7388 65.2976 104.639 56.7625L101.04 56.9682C101.04 56.9682 105.976 55.0142 105.153 47.8159C105.153 47.8159 103.611 51.4152 101.348 52.1349C101.348 52.1349 104.639 49.8723 103.816 45.759C103.816 45.759 100.834 49.8723 97.8518 50.5924C97.8518 50.5924 103.199 50.0781 102.274 42.5711L98.5714 44.7308C98.5714 44.7308 101.039 43.394 101.039 40.8229C101.039 40.8229 94.3549 44.3194 88.9048 42.5711C83.4543 40.8229 69.7773 34.8585 65.9726 46.7873C65.9726 46.7873 61.0364 43.7022 56.1002 48.7412C51.1652 53.7795 55.7928 69.1023 55.7928 69.1023Z" fill="#352C38"/>
<path d="M53.9424 49.0495C54.7542 48.2214 55.6873 47.511 56.6889 46.9116C56.9401 46.7625 57.1962 46.6215 57.4563 46.4865C57.7182 46.3559 57.9828 46.229 58.254 46.1154C58.5252 46.0029 58.799 45.893 59.0809 45.8046C59.3599 45.708 59.6478 45.6373 59.9356 45.5681L60.3719 45.479L60.8137 45.4157C61.1093 45.3854 61.4075 45.3528 61.7068 45.3572C62.0062 45.3461 62.3055 45.3735 62.6052 45.3939C62.9023 45.4375 63.2016 45.4745 63.4932 45.5515C63.7896 45.6092 64.0722 45.7158 64.3601 45.8053C64.6369 45.9226 64.9236 46.0225 65.1871 46.1686C65.4601 46.2974 65.7169 46.4539 65.9715 46.6141C66.2297 46.7692 66.4621 46.9597 66.7074 47.1332L66.169 47.5428C65.8734 46.7947 65.7754 46.0584 65.7731 45.294C65.7665 44.5336 65.9326 43.777 66.199 43.0677L66.4177 42.5412C66.5046 42.3732 66.6056 42.2126 66.6996 42.0483C66.875 41.7094 67.1214 41.4234 67.3512 41.1248C67.83 40.5469 68.3798 40.0322 68.9762 39.5937C69.125 39.4839 69.2641 39.3569 69.4213 39.2611L69.8916 38.9707C70.208 38.7827 70.5114 38.5663 70.8488 38.4231L71.8393 37.9476L71.9632 37.8884C72.0354 37.8562 72.0554 37.8522 72.1038 37.8325L72.3547 37.7375C72.5256 37.6768 72.6803 37.605 72.8649 37.5532C73.5964 37.3212 74.3209 37.1788 75.0627 37.1051C75.8024 37.0481 76.5468 37.047 77.2783 37.1325C78.0087 37.2158 78.7331 37.3397 79.438 37.5225C80.1447 37.6982 80.8403 37.9069 81.5203 38.1482C82.8849 38.6206 84.2084 39.1682 85.5404 39.6666C86.2064 39.9164 86.8765 40.1499 87.5573 40.3363C88.2369 40.5239 88.9259 40.6834 89.6267 40.7433C90.326 40.8011 91.0356 40.7637 91.7179 40.5865C92.3987 40.4085 93.051 40.1047 93.6371 39.6914C93.0865 40.1469 92.4572 40.5247 91.7638 40.7444C91.0734 40.9705 90.3385 41.0552 89.6104 41.0393C88.1493 40.9942 86.734 40.5998 85.3702 40.1565C83.9993 39.7184 82.667 39.1978 81.3117 38.7827C80.6353 38.5707 79.9563 38.379 79.2718 38.2225C78.5885 38.059 77.8969 37.9554 77.2061 37.8899C76.5142 37.8222 75.8227 37.8414 75.1378 37.894C74.4563 37.965 73.7736 38.1082 73.1417 38.3106C72.9815 38.3546 72.8102 38.4338 72.6448 38.4937L72.3947 38.5903C72.3602 38.6044 72.2944 38.6273 72.2862 38.634L72.1686 38.6913L71.228 39.1505C70.9061 39.2903 70.6238 39.492 70.3241 39.6663L69.8798 39.936C69.7307 40.0248 69.6041 40.1417 69.465 40.2427C68.907 40.6464 68.4027 41.1148 67.9672 41.6332C67.76 41.9003 67.5332 42.1556 67.3789 42.4553C67.2949 42.6007 67.2028 42.7424 67.1244 42.8904L66.9246 43.3515C66.6785 43.9716 66.5168 44.6331 66.5109 45.3062C66.4939 45.9677 66.5879 46.6755 66.8077 47.2642L67.2217 48.372L66.2693 47.6742C66.0451 47.5099 65.836 47.3223 65.6015 47.1728C65.3709 47.0174 65.1382 46.8646 64.8907 46.7388C64.6517 46.5953 64.3919 46.4972 64.1403 46.3795C63.8784 46.29 63.6212 46.182 63.35 46.1209C63.0836 46.0403 62.8083 45.9999 62.5349 45.9481C62.2585 45.9178 61.9817 45.8793 61.7017 45.8775C61.4223 45.8604 61.1418 45.8793 60.8618 45.8952L60.4418 45.9363L60.0241 46.0029C59.7469 46.0558 59.4694 46.1135 59.1964 46.1908C58.9207 46.2589 58.6506 46.3488 58.3813 46.4417C58.1119 46.5353 57.8474 46.643 57.5839 46.7547C57.3223 46.8709 57.0633 46.9934 56.808 47.1247C56.2985 47.3885 55.8027 47.6831 55.3258 48.0064C54.8478 48.3291 54.3779 48.6676 53.9424 49.0495Z" fill="#352C38"/>
<path d="M52.9136 42.1593C53.6077 42.0864 54.307 42.0698 55.0056 42.0779C55.7041 42.0879 56.4042 42.1197 57.1001 42.2004C57.4479 42.24 57.7957 42.284 58.1417 42.3413C58.4884 42.3935 58.8328 42.4609 59.1762 42.5337C59.5203 42.6052 59.8607 42.6928 60.2007 42.7824C60.5382 42.8815 60.8771 42.9785 61.2068 43.1039C61.5401 43.2179 61.865 43.3585 62.1884 43.4994L62.6686 43.7244L63.1367 43.9749C63.295 44.0541 63.4408 44.1562 63.5936 44.2457C63.7468 44.3353 63.8952 44.4326 64.0384 44.5377C64.3347 44.7341 64.6074 44.9624 64.8838 45.187C65.1439 45.4301 65.4111 45.6665 65.6438 45.9381C65.8939 46.193 66.0963 46.4902 66.3091 46.7758C66.5011 47.0766 66.6976 47.3752 66.8511 47.6978C67.0283 48.0086 67.1427 48.3479 67.284 48.6743L66.944 48.8419C66.4626 48.0371 66.0534 47.208 65.6919 46.3507C65.3382 45.4923 65.0499 44.6035 64.8675 43.6896C64.8202 43.4617 64.7839 43.2312 64.7536 42.9999C64.7221 42.7687 64.704 42.536 64.6914 42.3029C64.6862 42.0694 64.6774 41.8356 64.6977 41.6021C64.7084 41.3686 64.7451 41.1363 64.7869 40.9065C64.8131 40.7922 64.8353 40.6775 64.8653 40.5646L64.9715 40.2301C65.0577 40.0129 65.148 39.7972 65.2694 39.5978C65.3215 39.4935 65.3915 39.3998 65.4595 39.3055C65.525 39.2093 65.5946 39.1164 65.6767 39.0343C65.8258 38.8559 66.0057 38.7094 66.1799 38.5596C66.0164 38.7224 65.8491 38.8793 65.7148 39.0657C65.6397 39.1523 65.5783 39.2485 65.5187 39.3458C65.4569 39.4417 65.394 39.5364 65.3485 39.6411C65.2405 39.8416 65.1643 40.0559 65.0921 40.2705L65.0067 40.5994C64.9837 40.71 64.9682 40.8229 64.9486 40.9339C64.9201 41.1581 64.8964 41.3838 64.8986 41.6102C64.8897 41.8363 64.9034 42.0631 64.9167 42.2888C64.9364 42.5149 64.9615 42.7402 64.9993 42.9641C65.0359 43.1879 65.0784 43.4114 65.1321 43.6323C65.3356 44.5192 65.6575 45.3761 66.016 46.2134C66.3779 47.0481 66.7952 47.8691 67.267 48.6387L66.927 48.8063C66.7875 48.4959 66.6757 48.1722 66.5029 47.878C66.3535 47.5717 66.1629 47.2897 65.9775 47.0052C65.7722 46.7351 65.5746 46.4576 65.3408 46.2101C65.1225 45.9488 64.8686 45.7206 64.6226 45.4849C64.3599 45.2673 64.1009 45.0449 63.8175 44.8529C63.6809 44.75 63.5389 44.6549 63.392 44.5669C63.2455 44.4788 63.106 44.3786 62.9532 44.3001L62.5021 44.0526L62.0381 43.8291C61.7248 43.6885 61.4106 43.5479 61.0858 43.4332C60.7642 43.31 60.4364 43.2038 60.109 43.0954C59.7782 42.997 59.4467 42.8997 59.1107 42.8186C58.7751 42.7358 58.4377 42.6584 58.0969 42.5959C57.7572 42.5282 57.415 42.4738 57.072 42.4235C56.3853 42.328 55.6949 42.2481 55.0011 42.2044C54.307 42.1623 53.6107 42.1404 52.9136 42.1593Z" fill="#352C38"/>
<path d="M73.0693 82.368C73.0693 82.368 75.229 75.5807 86.0267 84.7334L73.0693 82.368Z" fill="white"/>
<path d="M86.0267 66.223C86.1195 67.3175 86.1502 68.4116 86.1658 69.5049L86.1628 71.1444L86.118 72.7828C86.0703 73.8743 86.0126 74.9661 85.9134 76.0565C85.8672 76.6023 85.8124 77.1469 85.7484 77.6912C85.6777 78.2369 85.5986 78.7812 85.5116 79.3236L85.4435 79.7487L85.0772 79.566C84.7394 79.3976 84.4009 79.2315 84.0664 79.0554L83.0611 78.5318C82.3944 78.1751 81.7287 77.8162 81.0757 77.43C81.7987 77.6612 82.5091 77.9198 83.2187 78.1807L84.278 78.5836C84.6318 78.7164 84.981 78.8593 85.3314 78.9995L84.897 79.2418C84.9281 78.6998 84.9666 78.16 85.014 77.6212C85.0439 77.0788 85.0728 76.5357 85.1161 75.9947C85.1623 75.4538 85.1742 74.9084 85.2215 74.3667L85.337 72.738C85.4239 71.6524 85.512 70.5657 85.623 69.4798C85.6826 68.937 85.7336 68.3934 85.8043 67.851C85.8653 67.3082 85.943 66.7658 86.0267 66.223Z" fill="#59221E"/>
<path d="M60.215 76.5064C59.9952 76.2238 59.805 75.9141 59.6689 75.577C59.6393 75.4911 59.5989 75.4086 59.5778 75.3195C59.5575 75.2303 59.5242 75.1434 59.5146 75.0509C59.5072 74.9584 59.4838 74.8666 59.4901 74.7722C59.5005 74.6786 59.4901 74.581 59.5197 74.4888C59.5527 74.3989 59.5619 74.2968 59.6171 74.2154C59.6722 74.1358 59.711 74.0389 59.7835 73.9745C59.8557 73.9098 59.9275 73.8424 60.0026 73.7806L60.2553 73.6452C60.3382 73.5927 60.4299 73.5749 60.5191 73.5457L60.7888 73.465L61.3372 73.3844L61.208 73.5002C61.3005 72.8523 61.3457 72.1904 61.3775 71.5347C61.4056 70.878 61.3956 70.2201 61.3372 69.5712C61.2765 68.9251 61.1625 68.2769 60.9135 67.6986C60.7907 67.4103 60.6338 67.1395 60.4273 66.9205C60.2198 66.704 59.9608 66.549 59.6737 66.4754C59.3843 66.4051 59.082 66.3858 58.7616 66.4421C58.4541 66.4902 58.1652 66.5808 57.9073 66.7455C57.6535 66.9083 57.4422 67.1347 57.2935 67.4066C57.1432 67.6775 57.0496 67.985 56.9949 68.3006C56.8846 68.9359 56.9323 69.5985 57.0108 70.2505C57.0981 70.9039 57.2479 71.5514 57.4389 72.1878C57.1791 71.5751 56.9897 70.9327 56.8509 70.2775C56.714 69.6226 56.6467 68.9436 56.7296 68.2614C56.7732 67.9213 56.8583 67.5794 57.0167 67.2612C57.1736 66.9445 57.41 66.6522 57.713 66.4517C58.0105 66.2489 58.3661 66.1305 58.7117 66.0702C59.0443 66.0051 59.4221 66.0058 59.7747 66.0932C60.131 66.1812 60.464 66.3784 60.7178 66.6408C60.9705 66.9049 61.1518 67.2168 61.2913 67.5369C61.5662 68.1822 61.6735 68.8641 61.7335 69.5364C61.793 70.2109 61.7771 70.885 61.7364 71.554C61.6957 72.2244 61.6062 72.886 61.4859 73.549L61.4671 73.6537L61.3568 73.6648L60.8399 73.7174L60.5924 73.7803C60.5106 73.8032 60.4233 73.8154 60.3519 73.8583L60.1258 73.9656L59.9364 74.1196C59.8723 74.171 59.8394 74.2465 59.7865 74.3086C59.7336 74.3719 59.7236 74.4577 59.6881 74.5317C59.6559 74.608 59.6607 74.6957 59.6444 74.7778C59.6318 74.8614 59.6481 74.948 59.6481 75.0338C59.6504 75.12 59.6762 75.2048 59.6892 75.291C59.7029 75.3776 59.7362 75.4597 59.7588 75.5448C59.869 75.8793 60.0237 76.2038 60.215 76.5064Z" fill="#59221E"/>
<path d="M86.7466 63.3434C86.7466 63.3434 86.8317 63.4681 86.9808 63.6864C87.0545 63.7915 87.147 63.9154 87.2495 64.0527C87.3527 64.1903 87.4663 64.3409 87.5969 64.497C87.7153 64.6584 87.8711 64.8145 88.0098 64.9854C88.1696 65.1445 88.3128 65.3225 88.4904 65.4809C88.5792 65.5597 88.6543 65.6511 88.7457 65.7295C88.8393 65.8061 88.9315 65.8845 89.0199 65.9678C89.1975 66.1328 89.4077 66.269 89.5938 66.4296C89.7991 66.5705 90.0048 66.7115 90.2069 66.8506C90.4255 66.9679 90.625 67.1148 90.8359 67.2339C91.0516 67.3442 91.2584 67.463 91.4564 67.5821C91.661 67.6857 91.8604 67.7808 92.0435 67.8818C92.226 67.9865 92.3976 68.0809 92.556 68.1512C92.7129 68.227 92.8501 68.3058 92.9648 68.3684C93.1942 68.4956 93.3282 68.5881 93.3282 68.5881C93.3282 68.5881 93.1817 68.6388 92.9204 68.6925C92.7898 68.7184 92.6293 68.7524 92.4446 68.7772C92.3521 68.7905 92.2533 68.8035 92.1494 68.8109C92.0458 68.8105 91.9366 68.8098 91.823 68.8094C91.5951 68.802 91.345 68.7942 91.0823 68.7631C90.8237 68.7128 90.5491 68.6525 90.2668 68.5774C89.9878 68.4934 89.7081 68.3676 89.4247 68.2414C89.1453 68.1053 88.8823 67.9214 88.6144 67.7508C88.3743 67.5388 88.1123 67.3516 87.9077 67.1092C87.6935 66.8769 87.4977 66.6368 87.3449 66.3778C87.174 66.1332 87.063 65.862 86.9501 65.6178C86.8598 65.3599 86.7718 65.122 86.7322 64.8881C86.6822 64.6591 86.6589 64.4449 86.6504 64.2554C86.6393 64.0667 86.6541 63.8988 86.6649 63.7644C86.6911 63.4929 86.7466 63.3434 86.7466 63.3434Z" fill="#1A141C"/>
<path d="M83.4558 63.0352C83.4558 63.0352 83.3966 63.2264 83.2179 63.5269C83.1232 63.6693 83.0159 63.8599 82.8568 64.0419C82.7062 64.2358 82.5145 64.4323 82.2929 64.6387C82.0672 64.8371 81.81 65.0465 81.5155 65.2318C81.3686 65.3251 81.2121 65.4128 81.0534 65.5071C80.892 65.5956 80.7178 65.6629 80.5435 65.7428C80.3696 65.8246 80.1887 65.8971 79.9989 65.9482C79.8113 66.0066 79.62 66.0643 79.4254 66.1161C79.0343 66.1972 78.6295 66.2653 78.2258 66.2989L77.6194 66.313C77.4178 66.3226 77.2172 66.3152 77.0215 66.2886C76.8246 66.2697 76.63 66.2468 76.4387 66.2197C76.2467 66.1964 76.0584 66.1728 75.8793 66.1173C75.5178 66.0255 75.1715 65.9304 74.85 65.8268C74.5358 65.6977 74.2439 65.5682 73.9786 65.4439C73.8472 65.3795 73.7215 65.3181 73.6019 65.2596C73.4887 65.1874 73.381 65.1194 73.28 65.0554C73.0795 64.9259 72.9108 64.8019 72.772 64.7031C72.4956 64.5029 72.3491 64.372 72.3491 64.372C72.3491 64.372 72.553 64.3709 72.8893 64.3975C73.0573 64.4119 73.2608 64.4256 73.4869 64.4541C73.5993 64.4689 73.7189 64.4848 73.8447 64.5015C73.9712 64.51 74.1048 64.5189 74.2435 64.5281C74.5192 64.5499 74.8126 64.5792 75.1182 64.6176C75.4271 64.6324 75.7498 64.6435 76.078 64.6717C76.4065 64.7083 76.7447 64.6713 77.0844 64.6935C77.255 64.7064 77.4251 64.6909 77.595 64.6817L78.1067 64.6583C78.2791 64.6632 78.4445 64.6228 78.6132 64.6084C78.7801 64.5832 78.9514 64.5818 79.1157 64.5529C79.4391 64.4789 79.7739 64.4548 80.0799 64.3635C80.2364 64.3261 80.3907 64.2895 80.5413 64.2532C80.6893 64.2081 80.8332 64.1596 80.9783 64.1204C81.1263 64.086 81.2572 64.026 81.3927 63.9805C81.5255 63.9313 81.662 63.8936 81.7819 63.8381C82.0291 63.7378 82.261 63.6445 82.4616 63.5472C82.6688 63.4584 82.8416 63.3648 82.9918 63.2919C83.1328 63.2098 83.2575 63.1543 83.3322 63.1058C83.4129 63.0599 83.4558 63.0352 83.4558 63.0352Z" fill="#1A141C"/>
<path d="M78.0962 69.562C77.8942 70.8525 77.2981 71.8312 76.7653 71.7475C76.2321 71.6643 75.9639 70.5502 76.1659 69.2597C76.3679 67.9691 76.964 66.9905 77.4968 67.0741C78.03 67.1577 78.2982 68.2714 78.0962 69.562Z" fill="#1A141C"/>
<path d="M89.8198 71.6188C89.6178 72.9094 89.0218 73.888 88.489 73.8044C87.9558 73.7212 87.6875 72.6071 87.8895 71.3165C88.0916 70.026 88.6876 69.0473 89.2204 69.131C89.7536 69.2142 90.0219 70.3283 89.8198 71.6188Z" fill="#1A141C"/>
<path d="M75.2287 70.6449C75.2287 70.6449 75.2431 70.7589 75.2686 70.9583C75.2912 71.157 75.3393 71.4389 75.4052 71.7701C75.4399 71.9355 75.484 72.1119 75.5332 72.2958C75.5868 72.4782 75.6538 72.6658 75.7359 72.8475C75.8214 73.0262 75.928 73.2009 76.063 73.33C76.1999 73.4491 76.3583 73.5509 76.5381 73.5438C76.682 73.5524 76.8704 73.4665 77.0221 73.3455C77.1764 73.2201 77.3229 73.0706 77.449 72.9097C77.704 72.5885 77.9082 72.25 78.0795 71.9577C78.2471 71.6628 78.3881 71.4134 78.4769 71.2339C78.5694 71.0552 78.6223 70.9531 78.6223 70.9531C78.6223 70.9531 78.5428 71.4093 78.2926 72.0598C78.1646 72.3832 77.9944 72.7561 77.7402 73.1254C77.6107 73.3074 77.4653 73.4961 77.2707 73.6548C77.075 73.8088 76.8348 73.959 76.5152 73.9538C76.2299 73.952 75.9698 73.7895 75.7837 73.6112C75.5946 73.424 75.4921 73.1983 75.4037 72.9881C75.319 72.775 75.272 72.563 75.235 72.3632C75.2002 72.1634 75.1824 71.9736 75.1721 71.7989C75.1414 71.1004 75.2287 70.6449 75.2287 70.6449Z" fill="#59221E"/>
<path d="M87.2607 72.8043C87.2607 72.8043 87.2747 72.905 87.2988 73.0811C87.3184 73.2565 87.3643 73.5058 87.4172 73.7992C87.4745 74.0915 87.5459 74.4327 87.6706 74.7661C87.728 74.9348 87.8157 75.092 87.9119 75.2278C88.017 75.3492 88.1302 75.4635 88.273 75.4679L88.2981 75.4757L88.3044 75.4779L88.3074 75.479C88.3144 75.4794 88.253 75.4779 88.28 75.4787H88.2822L88.3011 75.4779L88.3766 75.475C88.4221 75.4705 88.4905 75.4776 88.5072 75.4587C88.5346 75.4457 88.5616 75.4361 88.5916 75.4291L88.6918 75.3673C88.7618 75.3314 88.8184 75.2589 88.885 75.2093C88.9405 75.1409 89.0034 75.082 89.053 75.008C89.2616 74.7235 89.4167 74.4123 89.5443 74.1437C89.6675 73.8725 89.7719 73.6416 89.8322 73.4759C89.8973 73.3105 89.9347 73.2161 89.9347 73.2161C89.9347 73.2161 89.9324 73.3186 89.9099 73.4958C89.8832 73.672 89.8503 73.9273 89.7663 74.2244C89.6842 74.5219 89.5658 74.8678 89.3519 75.2123C89.2424 75.3814 89.1129 75.5597 88.9172 75.694C88.8668 75.7266 88.8191 75.7602 88.7644 75.7902C88.6996 75.8157 88.6319 75.8387 88.5645 75.8587C88.4887 75.8853 88.4528 75.8753 88.3984 75.8824L88.3229 75.8872L88.3041 75.8883L88.2697 75.8879L88.2637 75.8868L88.2515 75.8842L88.2031 75.8735C87.9289 75.8417 87.7298 75.64 87.5922 75.4631C87.4597 75.2741 87.3824 75.0721 87.3276 74.88C87.2677 74.688 87.2392 74.4993 87.217 74.3221C87.1933 74.1448 87.1848 73.9772 87.183 73.8229C87.1752 73.5147 87.2033 73.2594 87.2189 73.0818C87.2392 72.9046 87.2607 72.8043 87.2607 72.8043Z" fill="#59221E"/>
<path d="M149.37 166.203H99.519L118.381 125.003H168.232L149.37 166.203Z" fill="#352C38"/>
<path d="M106.424 161.76H71.731V166.204H106.424V161.76Z" fill="#352C38"/>
<path d="M152.738 166.203H102.888L121.75 125.003H171.6L152.738 166.203Z" fill="#765E69"/>
</svg>
