<svg width="185" height="185" viewBox="0 0 185 185" fill="none" xmlns="http://www.w3.org/2000/svg">
<path d="M45.4475 154.702H12.8005C12.8005 154.702 0.297499 100.522 36.7651 91.144C73.2326 81.7663 44.7534 40.4558 83.6518 23.7658C122.551 7.07589 171.868 38.0057 175.342 72.7365C178.815 107.467 169.437 153.312 169.437 153.312L45.4475 154.702Z" fill="#FDEDEE"/>
<path d="M110.574 88.8433C110.574 88.8433 104.807 79.8087 95.9646 80.3855C87.1224 80.9623 90.5822 90.3811 80.9711 87.3056C71.36 84.2302 60.8009 94.4503 65.5932 106.144C70.3987 117.869 77.1268 116.524 75.3967 121.522C72.7701 129.11 67.9001 129.788 78.0877 138.63C88.2757 147.472 112.496 136.9 114.61 122.483C116.725 108.066 110.574 88.8433 110.574 88.8433Z" fill="#352C38"/>
<path d="M110.141 89.9992C110.141 89.9992 109.949 89.6348 109.529 88.9891C109.11 88.3435 108.457 87.4181 107.52 86.3318C106.58 85.2525 105.343 84.0052 103.701 82.8804C102.069 81.7627 99.9899 80.7777 97.573 80.4936C96.372 80.3563 95.0862 80.3478 93.8419 80.6826C92.5913 81.0038 91.4462 81.7346 90.5034 82.7417C90.0243 83.2393 89.5814 83.7925 89.113 84.353C88.6442 84.911 88.1443 85.4841 87.5179 85.9614C87.2045 86.1979 86.8586 86.4051 86.4867 86.5645C86.1134 86.721 85.7156 86.8232 85.3138 86.8753C84.5065 86.98 83.6965 86.8809 82.9225 86.6985C82.1481 86.5179 81.3911 86.2363 80.6703 85.9337C80.2999 85.7827 79.9588 85.6499 79.5903 85.5404C79.2254 85.4246 78.8525 85.3339 78.4755 85.2562C76.9659 84.9536 75.3771 84.9676 73.8383 85.2895C70.7539 85.9307 67.9023 87.8018 66.0124 90.3807C65.0548 91.6613 64.337 93.1176 63.896 94.6487C63.4594 96.1816 63.3014 97.7855 63.4124 99.3617C63.4653 100.15 63.5815 100.931 63.7535 101.698C63.842 102.079 63.9426 102.461 64.0518 102.832C64.1679 103.216 64.2863 103.591 64.4099 103.961C64.9094 105.451 65.5007 106.889 66.1815 108.254C66.8597 109.621 67.6367 110.908 68.4555 112.13C69.2747 113.354 70.1597 114.495 71.0044 115.637C71.4244 116.21 71.8347 116.785 72.1862 117.397C72.5362 118.006 72.8278 118.666 72.9332 119.37C73.0413 120.073 72.9355 120.789 72.6938 121.414C72.5729 121.734 72.43 122.018 72.2868 122.302C72.1425 122.59 71.9901 122.864 71.8332 123.135C71.205 124.217 70.4613 125.166 69.7116 126.008C69.3391 126.432 68.9679 126.833 68.6475 127.244C68.3308 127.655 68.0651 128.087 67.976 128.549C67.8783 129.01 67.9612 129.48 68.1095 129.908C68.2612 130.337 68.4703 130.733 68.6919 131.1C69.1385 131.834 69.6225 132.467 70.0691 133.028C70.9711 134.145 71.7233 134.991 72.2369 135.565C72.7549 136.136 73.0313 136.44 73.0313 136.44C73.0313 136.44 72.7445 136.145 72.2062 135.593C71.6749 135.035 70.8845 134.224 69.9533 133.123C69.4896 132.571 68.9864 131.948 68.5114 131.212C68.2757 130.843 68.0492 130.442 67.8764 129.993C67.7077 129.546 67.5978 129.026 67.6948 128.497C67.7836 127.965 68.0681 127.484 68.3863 127.048C68.7089 126.611 69.0723 126.198 69.4312 125.768C70.1527 124.912 70.8657 123.984 71.4584 122.92C71.6064 122.655 71.7522 122.382 71.8858 122.105C72.0212 121.825 72.1592 121.538 72.2598 121.255C72.47 120.681 72.5488 120.06 72.4456 119.447C72.3438 118.833 72.0737 118.236 71.7318 117.663C71.39 117.089 70.9811 116.533 70.5564 115.974C69.7024 114.857 68.7881 113.717 67.936 112.487C67.0772 111.262 66.2903 109.943 65.5861 108.554C64.8831 107.164 64.2723 105.699 63.755 104.183C63.6255 103.802 63.5023 103.418 63.3854 103.039C63.2666 102.645 63.1615 102.254 63.0668 101.854C62.8829 101.056 62.7568 100.239 62.6968 99.4124C62.5718 97.7596 62.7279 96.068 63.1811 94.4463C63.6385 92.8271 64.3881 91.2817 65.3956 89.9234C67.4099 87.2072 70.4246 85.2507 73.694 84.588C75.3253 84.2554 77.0125 84.2491 78.6135 84.5791C79.0131 84.6635 79.4086 84.7623 79.7949 84.8866C80.1819 85.0035 80.573 85.1582 80.9263 85.3047C81.6464 85.6114 82.3512 85.876 83.0783 86.0502C83.7998 86.2252 84.5338 86.314 85.2328 86.226C85.9324 86.1435 86.5814 85.8719 87.1434 85.4568C88.2716 84.6157 89.0797 83.3663 90.1042 82.3506C90.6118 81.837 91.1702 81.3705 91.7825 81.0045C92.3938 80.6382 93.0512 80.3689 93.718 80.205C95.057 79.8698 96.3894 79.9042 97.6278 80.0647C98.8706 80.2349 100.035 80.5731 101.077 81.0338C102.119 81.4959 103.046 82.0557 103.865 82.6462C105.504 83.8336 106.717 85.1241 107.634 86.2349C108.553 87.3497 109.165 88.3072 109.564 88.9662C109.962 89.6285 110.141 89.9992 110.141 89.9992Z" fill="#352C38"/>
<path d="M107.496 91.2591C107.496 91.2591 107.495 91.0035 107.464 90.5147C107.433 90.0263 107.373 89.3085 107.24 88.402C107.107 87.4962 106.903 86.4003 106.557 85.1738C106.208 83.9509 105.721 82.5889 104.96 81.2255C104.203 79.8683 103.154 78.4986 101.707 77.4644C100.27 76.4214 98.4317 75.7939 96.4866 75.6977C95.5176 75.647 94.5108 75.7036 93.5118 75.8116C93.013 75.8701 92.5132 75.9508 92.0351 76.0866C91.798 76.1558 91.5641 76.2394 91.361 76.3537C91.1582 76.4647 90.9891 76.6231 90.9692 76.7759C90.9407 76.9261 91.0546 77.1237 91.2234 77.2824C91.391 77.4437 91.5989 77.581 91.8179 77.6975C92.259 77.9299 92.7481 78.0927 93.2447 78.1815C93.7368 78.2655 94.2636 78.2855 94.698 78.1153C94.9119 78.0294 95.0854 77.8888 95.1768 77.6968C95.2719 77.5062 95.2848 77.2672 95.2527 77.0293C95.1842 76.5476 94.9585 76.0721 94.7084 75.6244C94.4542 75.1767 94.153 74.7427 93.8426 74.3342C93.2106 73.5058 92.4521 72.7954 91.5556 72.3089C90.6639 71.8205 89.6534 71.5859 88.6533 71.5833C87.6506 71.5774 86.6631 71.7827 85.7337 72.0928C83.8692 72.7233 82.2224 73.7356 80.7583 74.7938C79.296 75.8634 78.0088 77.0038 76.8888 78.1216C75.8388 79.3022 74.6692 80.2439 73.4622 80.7223C72.8621 80.958 72.2364 81.0568 71.6837 80.9358C71.1283 80.82 70.6928 80.494 70.3931 80.1443C69.7955 79.4262 69.5839 78.7028 69.4352 78.2374C69.296 77.7615 69.2461 77.5018 69.2461 77.5018C69.2461 77.5018 69.2986 77.7612 69.4415 78.2355C69.5939 78.6991 69.8129 79.4203 70.4123 80.1277C70.7128 80.4722 71.1453 80.7889 71.6918 80.898C72.2361 81.012 72.851 80.9099 73.4426 80.672C74.634 80.1847 75.7847 79.2504 76.8215 78.0546C77.9315 76.9202 79.2087 75.7613 80.6661 74.6683C82.1262 73.5868 83.7716 72.546 85.6619 71.8811C86.6046 71.5541 87.614 71.3302 88.6537 71.3239C89.6901 71.3139 90.7538 71.5463 91.6955 72.048C92.6386 72.5431 93.4504 73.2908 94.1023 74.1256C94.4335 74.5511 94.7402 74.9821 95.0136 75.449C95.2797 75.916 95.5298 76.4088 95.6201 76.9771C95.6608 77.258 95.6571 77.5721 95.5198 77.8611C95.3873 78.1534 95.1187 78.3646 94.8445 78.4727C94.2862 78.6891 93.7146 78.654 93.1777 78.5689C92.6386 78.4742 92.1176 78.3047 91.6307 78.0513C91.388 77.9225 91.1531 77.7723 90.9429 77.5725C90.8386 77.4718 90.7401 77.3571 90.6639 77.2154C90.5884 77.0759 90.5389 76.8957 90.567 76.7133C90.6365 76.3363 90.9233 76.135 91.1582 75.9963C91.4065 75.8557 91.6633 75.765 91.9197 75.6884C92.4336 75.5404 92.9498 75.4561 93.4622 75.3932C94.4886 75.2781 95.5002 75.2159 96.5107 75.2637C98.5246 75.3532 100.461 76.0011 101.973 77.0896C103.497 78.1682 104.594 79.5919 105.381 80.9894C106.172 82.3943 106.676 83.7877 107.039 85.0361C107.398 86.2878 107.611 87.4037 107.751 88.3262C107.89 89.2489 107.954 89.9804 107.988 90.4803C108.022 90.9802 108.024 91.2532 108.024 91.2532L107.496 91.2591Z" fill="#352C38"/>
<path d="M91.9269 55.0513C91.9269 55.0513 91.8655 55.2019 91.7708 55.4912C91.6772 55.7809 91.5491 56.2094 91.4344 56.7659C91.322 57.3216 91.2184 58.0072 91.2246 58.7964C91.232 59.5801 91.3571 60.4866 91.8015 61.3439C92.2388 62.2008 93.0517 62.9419 94.0818 63.3359C94.5905 63.5361 95.1503 63.6774 95.7131 63.8388C96.2777 63.9979 96.8549 64.1603 97.4414 64.3253C98.6102 64.6709 99.8316 65.0191 100.993 65.6196C101.562 65.9289 102.144 66.3144 102.503 66.9275C102.681 67.2294 102.782 67.5843 102.79 67.9376C102.795 68.2917 102.719 68.6332 102.613 68.9581C102.383 69.6011 102.025 70.1724 101.637 70.7041L101.354 71.0937C101.263 71.2251 101.157 71.3575 101.091 71.4863C101.017 71.6154 100.938 71.7416 100.886 71.8811C100.859 71.9492 100.823 72.0161 100.802 72.0846L100.748 72.291C100.694 72.5656 100.694 72.8383 100.795 73.0925C100.896 73.3459 101.054 73.586 101.248 73.8095C101.638 74.2565 102.113 74.6565 102.562 75.0709C103.015 75.4834 103.456 75.9078 103.859 76.3536C104.26 76.8021 104.618 77.2746 104.937 77.7548C105.56 78.7272 105.988 79.7454 106.264 80.7104C106.539 81.6768 106.691 82.5878 106.755 83.3959C106.801 83.7999 106.812 84.1784 106.823 84.5284C106.843 84.8788 106.834 85.1996 106.829 85.4897C106.829 86.0706 106.788 86.5235 106.769 86.8328C106.748 87.1425 106.737 87.3075 106.737 87.3075L105.82 87.2131C105.82 87.2131 105.835 87.0544 105.862 86.7566C105.888 86.4587 105.94 86.0217 105.954 85.4649C105.967 85.1863 105.983 84.8781 105.972 84.5432C105.97 84.208 105.97 83.8454 105.935 83.461C105.895 82.6892 105.773 81.8248 105.538 80.9106C105.302 79.997 104.928 79.0384 104.369 78.113C104.081 77.656 103.757 77.2028 103.387 76.7669C103.015 76.3329 102.603 75.9137 102.166 75.4949C101.732 75.0712 101.263 74.6609 100.84 74.151C100.631 73.8954 100.439 73.6008 100.316 73.2612C100.19 72.9171 100.196 72.5282 100.277 72.1826L100.353 71.9266C100.381 71.8433 100.423 71.7679 100.458 71.6883C100.523 71.527 100.618 71.3823 100.709 71.2351C100.798 71.08 100.899 70.9631 100.995 70.8314L101.292 70.444C101.679 69.9427 102.03 69.4073 102.253 68.8297C102.353 68.5392 102.424 68.2407 102.426 67.9432C102.424 67.6464 102.347 67.3575 102.202 67.0992C101.912 66.5757 101.386 66.1979 100.845 65.8937C99.7402 65.2958 98.5296 64.9225 97.3726 64.558C96.7895 64.3823 96.2163 64.2095 95.655 64.04C95.0945 63.868 94.5406 63.7185 94.0137 63.5002C92.9596 63.0755 92.1271 62.2877 91.6949 61.3986C91.2546 60.5088 91.1469 59.5875 91.1536 58.7968C91.1621 58.0005 91.279 57.3142 91.4023 56.7592C91.5277 56.2034 91.6635 55.7768 91.7626 55.489C91.8625 55.2007 91.9269 55.0513 91.9269 55.0513Z" fill="#352C38"/>
<path d="M100.578 124.79C100.578 124.79 94.235 121.137 88.6602 127.481C83.0858 133.824 69.2456 134.016 71.9366 144.396C74.6276 154.777 158.066 156.175 163.436 151.701C170.356 145.934 153.248 114.986 141.714 115.755C130.181 116.524 100.578 124.79 100.578 124.79Z" fill="#6F96BD"/>
<path d="M97.1055 115.847L91.0608 114.198" stroke="#965450" stroke-width="2.0781" stroke-miterlimit="10"/>
<path d="M105.501 96.2341C105.501 96.2341 91.0846 99.3043 95.5805 118.254C100.076 137.203 112.41 139.514 118.528 135.063C123.357 131.551 127.676 123.201 124.372 110.036C121.317 97.8654 113.728 95.3468 105.501 96.2341Z" fill="#FFAC9D"/>
<path d="M104.176 133.915C109.208 137.956 114.938 137.675 118.528 135.063C121.671 132.777 124.595 128.44 125.345 122.063C121.395 130.023 112.784 134.773 104.176 133.915Z" fill="#EF998E"/>
<path d="M104.23 98.6469C104.23 98.6469 105.768 110.181 114.418 111.141C123.069 112.103 124.414 110.949 124.222 117.485C124.03 124.02 118.455 135.938 127.682 136.13C136.909 136.323 133.257 115.755 141.715 115.755C150.173 115.755 162.475 136.707 162.475 136.707C162.475 136.707 172.471 130.556 165.935 119.407C162.179 112.999 155.363 117.869 155.363 110.565C155.363 103.26 148.25 109.988 149.981 104.99C151.711 99.9922 160.745 90.7655 151.518 83.2686C142.292 75.772 136.14 90.3811 132.488 83.461C128.836 76.5409 120.87 73.4632 115.188 76.5409C110.574 79.0398 102.693 85.1911 104.23 98.6469Z" fill="#352C38"/>
<path d="M165.044 115.315C165.044 115.315 165.011 115.208 164.946 115.003C164.887 114.796 164.779 114.494 164.622 114.109C164.45 113.733 164.229 113.261 163.836 112.811C163.455 112.354 162.832 111.982 162.064 111.944C161.683 111.916 161.277 111.948 160.845 111.97C160.418 111.983 159.937 112.009 159.474 111.801C159.001 111.604 158.671 111.149 158.472 110.673C158.269 110.19 158.146 109.665 158.067 109.123C157.914 108.053 157.898 106.847 157.238 105.894C156.917 105.426 156.402 105.126 155.804 105.089C155.209 105.032 154.578 105.171 153.924 105.301C153.593 105.363 153.257 105.44 152.869 105.428C152.682 105.428 152.453 105.375 152.261 105.232C152.052 105.084 151.984 104.848 151.933 104.649C151.866 104.241 151.939 103.88 152.002 103.518C152.041 103.347 152.079 103.149 152.131 102.983C152.18 102.811 152.226 102.64 152.289 102.463C152.76 101.064 153.416 99.7298 154.038 98.3342C154.662 96.9433 155.284 95.5085 155.753 93.9952C156.225 92.4878 156.549 90.8923 156.499 89.2758C156.435 87.6671 155.954 86.0505 154.989 84.7004C154.056 83.3292 152.722 82.2281 151.265 81.329C151.08 81.2043 150.893 81.1088 150.708 81.0182C150.52 80.9257 150.338 80.825 150.147 80.7373C149.753 80.5867 149.366 80.4099 148.955 80.3144C148.145 80.0909 147.299 79.9792 146.46 80.061C144.771 80.199 143.179 80.9652 141.72 81.9165C140.984 82.3897 140.269 82.9085 139.54 83.4239C138.808 83.9356 138.065 84.4569 137.211 84.8506C136.777 85.0319 136.318 85.2066 135.806 85.2232C135.306 85.2487 134.761 85.1466 134.337 84.8713L134.171 84.7792L134.026 84.6649L133.739 84.4325C133.571 84.2619 133.411 84.084 133.257 83.9045C133.001 83.5386 132.745 83.1734 132.49 82.809C130.555 79.9829 127.708 77.8506 124.588 76.8989C123.032 76.4191 121.414 76.2459 119.861 76.3928C118.308 76.5412 116.823 77.0351 115.57 77.8358C113.011 79.4471 110.921 81.4766 109.395 83.627C109.191 83.8875 109.019 84.1654 108.851 84.4414C108.681 84.7159 108.512 84.9871 108.345 85.2558C108.063 85.8204 107.758 86.3595 107.515 86.91C107.4 87.1883 107.287 87.4632 107.175 87.7344C107.064 88.006 106.943 88.2702 106.869 88.5465C106.707 89.0938 106.516 89.6173 106.391 90.1405C106.278 90.6674 106.17 91.1769 106.064 91.669C105.986 92.1659 105.941 92.6502 105.882 93.1131C105.856 93.3451 105.821 93.5719 105.805 93.795C105.799 94.0188 105.792 94.2379 105.786 94.4517C105.773 94.8802 105.762 95.2887 105.75 95.6764C105.765 96.4516 105.827 97.1435 105.852 97.7466C105.859 98.0493 105.898 98.3256 105.936 98.5787C105.971 98.8322 106.003 99.0627 106.031 99.2692C106.146 100.095 106.207 100.536 106.207 100.536C106.207 100.536 106.132 100.098 105.99 99.2754C105.955 99.0697 105.915 98.8399 105.872 98.5869C105.826 98.3342 105.777 98.0581 105.76 97.7555C105.714 97.152 105.634 96.4586 105.601 95.679C105.602 95.2887 105.604 94.8772 105.607 94.4458C105.608 94.2297 105.609 94.0089 105.61 93.7832C105.621 93.5578 105.65 93.3284 105.67 93.0938C105.719 92.6254 105.752 92.1344 105.819 91.6301C105.914 91.1291 106.012 90.61 106.113 90.0739C106.606 87.9545 107.479 85.5899 109.04 83.3799C110.567 81.1584 112.672 79.0527 115.268 77.364C116.583 76.4956 118.154 75.9469 119.795 75.766C121.439 75.5777 123.147 75.7708 124.782 76.2611C128.06 77.243 131.044 79.4593 133.078 82.3983C133.327 82.7498 133.576 83.102 133.825 83.455C133.958 83.607 134.095 83.7569 134.234 83.899L134.462 84.0806L134.576 84.1717L134.701 84.2372C135.349 84.6401 136.155 84.5213 136.907 84.172C137.663 83.8205 138.384 83.3166 139.103 82.8064C139.823 82.2932 140.544 81.7604 141.305 81.2705C142.814 80.297 144.531 79.4653 146.402 79.3206C147.331 79.2359 148.27 79.3628 149.153 79.6118C149.602 79.7202 150.019 79.9107 150.444 80.0772C150.652 80.1738 150.855 80.2856 151.06 80.3895C151.267 80.4935 151.469 80.6004 151.647 80.7218C153.154 81.6634 154.561 82.8278 155.56 84.3089C156.591 85.766 157.11 87.535 157.166 89.2521C157.207 90.9767 156.867 92.6454 156.352 94.1857C155.847 95.7342 155.194 97.1786 154.547 98.5665C153.903 99.9525 153.227 101.288 152.76 102.611C152.699 102.772 152.65 102.946 152.598 103.117C152.542 103.29 152.513 103.442 152.47 103.614C152.405 103.942 152.343 104.285 152.389 104.569C152.423 105.144 153.221 104.989 153.844 104.877C154.495 104.759 155.163 104.615 155.845 104.687C156.182 104.725 156.527 104.81 156.82 104.992C157.11 105.171 157.37 105.404 157.54 105.682C157.908 106.226 158.063 106.829 158.165 107.411C158.266 107.992 158.283 108.551 158.35 109.083C158.414 109.614 158.522 110.122 158.7 110.577C158.878 111.029 159.158 111.428 159.563 111.608C159.96 111.801 160.418 111.796 160.84 111.791C161.267 111.78 161.682 111.756 162.077 111.795C162.472 111.832 162.845 111.937 163.154 112.112C163.463 112.287 163.718 112.51 163.906 112.751C164.295 113.227 164.501 113.71 164.662 114.094C164.807 114.486 164.905 114.791 164.957 115C165.014 115.207 165.044 115.315 165.044 115.315Z" fill="#352C38"/>
<path d="M108.652 104.798C108.652 104.798 108.221 103.932 107.665 102.336C107.12 100.74 106.416 98.4145 106.004 95.5363C105.595 92.6676 105.427 89.2355 106.02 85.6314C106.314 83.8332 106.787 81.9991 107.466 80.206C108.136 78.4134 109.044 76.6637 110.077 75.0338C111.126 73.3884 112.307 71.8326 113.683 70.4776C114.377 69.8087 115.129 69.2004 115.951 68.7105C116.771 68.2243 117.68 67.851 118.649 67.8014C119.13 67.7818 119.625 67.8447 120.074 68.0501C120.522 68.2502 120.915 68.6091 121.117 69.0668C121.33 69.5208 121.326 70.0521 121.157 70.4947C120.992 70.9401 120.698 71.3138 120.354 71.5884C120.274 71.6672 120.179 71.7208 120.091 71.7848L119.956 71.877L119.923 71.8999L119.897 71.9166L119.88 71.9254L119.813 71.9617L119.544 72.1064L119.236 72.2318C119.028 72.3036 118.813 72.3524 118.585 72.355C118.473 72.3598 118.354 72.3317 118.241 72.3125C118.133 72.2644 118.013 72.2374 117.923 72.156C117.717 72.0253 117.602 71.8115 117.518 71.6113C117.451 71.4037 117.418 71.1936 117.423 70.9905C117.43 70.5842 117.525 70.2005 117.671 69.8534C118.268 68.4545 119.43 67.5713 120.516 67.1062C121.613 66.6263 122.662 66.502 123.505 66.4779C124.354 66.4565 125.016 66.5475 125.462 66.6152C125.907 66.6948 126.145 66.7369 126.145 66.7369C126.145 66.7369 125.906 66.7055 125.458 66.6459C125.01 66.596 124.347 66.5442 123.51 66.5897C122.678 66.6411 121.651 66.8006 120.606 67.3008C119.571 67.7855 118.499 68.6757 117.972 69.973C117.844 70.2937 117.769 70.6434 117.771 70.9886C117.771 71.3297 117.876 71.6857 118.134 71.8511C118.379 72.0368 118.762 71.9846 119.099 71.8607L119.351 71.7541L119.617 71.6039C119.772 71.5096 119.939 71.3923 120.082 71.2676C120.38 71.0212 120.613 70.7 120.736 70.3459C120.863 69.9922 120.853 69.5974 120.687 69.2629C120.528 68.9273 120.231 68.6572 119.871 68.497C119.51 68.3346 119.093 68.2813 118.674 68.3009C117.828 68.3479 116.986 68.6909 116.217 69.1564C115.444 69.6233 114.726 70.2112 114.058 70.8628C112.736 72.18 111.583 73.7248 110.569 75.3335C109.528 76.9534 108.641 78.6384 107.968 80.3981C107.291 82.1508 106.814 83.9475 106.513 85.7135C105.909 89.25 105.966 92.6391 106.324 95.493C106.681 98.3519 107.272 100.694 107.771 102.301C108.268 103.911 108.652 104.798 108.652 104.798Z" fill="#352C38"/>
<path d="M105.384 94.2257C105.384 94.2257 105.385 93.9807 105.407 93.5216C105.431 93.0628 105.474 92.3886 105.582 91.5365C105.689 90.6844 105.849 89.6517 106.103 88.4796C106.355 87.3078 106.711 85.9961 107.238 84.6112C107.763 83.2271 108.447 81.7611 109.382 80.3285C110.31 78.8973 111.515 77.5024 113.037 76.3909C114.548 75.2706 116.358 74.4422 118.288 74.0218C120.218 73.593 122.242 73.5586 124.22 73.771L125.696 73.99C126.183 74.0855 126.664 74.205 127.146 74.3112C128.107 74.5195 129.039 74.7844 129.977 75.0005C131.84 75.4393 133.699 75.7945 135.503 76.0653C137.309 76.3288 139.065 76.5204 140.734 76.5852C142.403 76.6492 143.987 76.6081 145.426 76.4076C146.144 76.3021 146.831 76.1815 147.465 76.0002C147.788 75.9266 148.085 75.8086 148.384 75.7153C148.669 75.5936 148.955 75.4904 149.208 75.3461C149.721 75.0771 150.175 74.7522 150.458 74.3497C150.748 73.9526 150.801 73.4672 150.619 73.1016C150.442 72.7335 150.133 72.4952 149.866 72.3113C149.725 72.227 149.588 72.1596 149.465 72.0915C149.337 72.0349 149.218 71.9905 149.112 71.9469C148.901 71.8566 148.726 71.8251 148.615 71.7859C148.501 71.7523 148.442 71.7349 148.442 71.7349C148.442 71.7349 148.502 71.7486 148.617 71.7756C148.731 71.8081 148.908 71.8292 149.126 71.9073C149.234 71.9446 149.358 71.9828 149.491 72.0323C149.619 72.0938 149.763 72.1541 149.913 72.2321C150.199 72.4038 150.537 72.6336 150.754 73.0354C150.796 73.1401 150.862 73.2408 150.872 73.3632C150.883 73.4228 150.893 73.4831 150.904 73.5442C150.909 73.6056 150.898 73.6681 150.896 73.7314C150.887 73.9874 150.774 74.2361 150.635 74.4669C150.34 74.9268 149.872 75.2895 149.347 75.5958C148.29 76.22 146.951 76.5859 145.49 76.8349C144.024 77.0795 142.415 77.1646 140.719 77.1454C139.023 77.1254 137.237 76.9892 135.409 76.7254C133.579 76.4672 131.704 76.1268 129.809 75.6976C128.865 75.4889 127.925 75.231 126.976 75.0345C126.505 74.9354 126.035 74.8229 125.562 74.7345L124.131 74.5335C122.221 74.3115 120.28 74.3293 118.439 74.7211C116.598 75.1052 114.878 75.8741 113.43 76.9274C111.982 77.9816 110.781 79.274 109.844 80.6404C108.9 82.005 108.19 83.4217 107.638 84.7688C106.542 87.4728 106.014 89.8752 105.729 91.558C105.441 93.2452 105.384 94.2257 105.384 94.2257Z" fill="#352C38"/>
<path d="M146.136 115.755C145.342 115.174 144.522 114.619 143.628 114.205C142.743 113.797 141.736 113.533 140.767 113.756C139.795 113.972 139.009 114.666 138.439 115.456C137.862 116.253 137.444 117.154 137.095 118.072C136.749 118.992 136.474 119.939 136.242 120.895C136.006 121.85 135.825 122.818 135.611 123.779C135.195 125.704 134.758 127.625 134.226 129.523C133.686 131.414 133.083 133.306 132.134 135.046C131.654 135.906 131.077 136.74 130.282 137.354C129.885 137.656 129.432 137.898 128.942 138.016C128.453 138.141 127.939 138.143 127.445 138.059C126.453 137.882 125.557 137.394 124.744 136.836C123.934 136.273 123.156 135.608 122.65 134.73C122.397 134.294 122.237 133.801 122.184 133.297C122.131 132.793 122.185 132.284 122.301 131.798C122.535 130.822 122.97 129.922 123.408 129.04C124.3 127.283 125.239 125.55 125.838 123.685C126.145 122.755 126.358 121.806 126.499 120.832C126.639 119.869 126.735 118.887 126.649 117.927C126.572 116.97 126.229 116.034 125.543 115.376C124.867 114.707 123.959 114.309 123.046 113.993C121.193 113.388 119.245 113.066 117.311 112.723C116.342 112.554 115.37 112.401 114.397 112.249C113.433 112.107 112.429 111.934 111.479 111.604C110.528 111.281 109.603 110.847 108.768 110.263C107.931 109.681 107.202 108.948 106.577 108.136C105.957 107.319 105.464 106.407 105.088 105.453C104.7 104.504 104.423 103.511 104.236 102.505C104.039 101.499 103.925 100.479 103.876 99.4535C103.848 98.9407 103.838 98.426 103.846 97.9091C103.851 97.383 103.861 96.8916 103.921 96.317L106.081 96.7388V96.7392C105.994 97.1628 105.92 97.6653 105.863 98.1374C105.804 98.6173 105.76 99.1013 105.728 99.586C105.665 100.555 105.655 101.529 105.702 102.498C105.8 104.433 106.126 106.358 106.799 108.147C107.137 109.039 107.562 109.895 108.082 110.687C108.606 111.476 109.221 112.203 109.93 112.833C111.341 114.104 113.107 114.975 114.99 115.469C115.932 115.719 116.903 115.883 117.884 115.977C118.375 116.023 118.868 116.058 119.364 116.068C119.842 116.085 120.395 116.075 120.923 116.161C121.452 116.244 121.991 116.37 122.504 116.67C122.756 116.822 123.003 117.038 123.168 117.326C123.339 117.613 123.388 117.96 123.356 118.261C123.33 118.564 123.222 118.849 123.12 119.082C123.015 119.326 122.899 119.563 122.768 119.792C122.507 120.25 122.192 120.682 121.815 121.059C121.437 121.433 121 121.762 120.481 121.959C120.22 122.051 119.939 122.126 119.612 122.063C119.455 122.031 119.258 121.928 119.17 121.735C119.083 121.545 119.113 121.361 119.158 121.218C119.256 120.928 119.426 120.714 119.6 120.514C119.767 120.321 120.01 120.114 120.294 120.036C120.582 119.949 120.898 120.005 121.142 120.139C121.391 120.272 121.588 120.465 121.752 120.674C122.386 121.524 122.592 122.622 122.397 123.63C122.296 124.134 122.077 124.614 121.755 125.01C121.435 125.407 121.021 125.72 120.57 125.944C121.011 125.7 121.407 125.372 121.703 124.969C122 124.568 122.191 124.094 122.268 123.606C122.415 122.632 122.158 121.584 121.547 120.84C121.248 120.478 120.792 120.206 120.391 120.352C120.188 120.423 120.031 120.559 119.877 120.75C119.729 120.934 119.594 121.138 119.54 121.331C119.513 121.427 119.518 121.512 119.543 121.552C119.565 121.592 119.613 121.624 119.7 121.639C119.874 121.668 120.104 121.612 120.309 121.524C120.729 121.343 121.107 121.037 121.428 120.688C121.749 120.336 122.017 119.933 122.235 119.505C122.345 119.29 122.441 119.069 122.526 118.846C122.615 118.614 122.673 118.414 122.68 118.211C122.706 117.809 122.497 117.525 122.126 117.324C121.755 117.13 121.287 117.034 120.821 116.988C120.345 116.934 119.887 116.972 119.357 116.976C118.843 116.988 118.328 116.976 117.813 116.95C116.782 116.898 115.749 116.772 114.729 116.55C113.71 116.326 112.702 116.008 111.739 115.568C110.78 115.121 109.856 114.569 109.032 113.887C108.2 113.212 107.464 112.419 106.833 111.554C106.204 110.686 105.685 109.745 105.264 108.769C104.424 106.81 103.978 104.723 103.778 102.639C103.68 101.595 103.644 100.548 103.665 99.5009C103.675 98.9777 103.699 98.4541 103.739 97.9302C103.782 97.3985 103.829 96.8987 103.918 96.3289L103.919 96.3277L106.079 96.7495C105.959 97.1432 105.852 97.6301 105.766 98.0841C105.686 98.5477 105.622 99.0169 105.575 99.4883C105.487 100.431 105.471 101.383 105.539 102.329C105.615 103.273 105.775 104.211 106.041 105.119C106.319 106.021 106.706 106.892 107.218 107.686C108.236 109.284 109.83 110.489 111.639 111.149C112.545 111.486 113.487 111.671 114.466 111.837L117.375 112.354C119.312 112.711 121.263 113.044 123.155 113.674C124.089 114.004 125.037 114.419 125.769 115.149C126.514 115.87 126.879 116.905 126.951 117.901C127.034 118.905 126.928 119.899 126.78 120.879C126.633 121.853 126.408 122.831 126.091 123.769C125.471 125.658 124.512 127.4 123.613 129.144C123.172 130.019 122.738 130.906 122.507 131.848C122.264 132.782 122.328 133.799 122.818 134.636C123.294 135.477 124.049 136.135 124.844 136.693C125.643 137.25 126.517 137.73 127.473 137.907C127.948 137.991 128.439 137.992 128.907 137.875C129.376 137.765 129.812 137.536 130.2 137.246C130.974 136.656 131.55 135.838 132.031 134.989C132.982 133.272 133.597 131.386 134.149 129.502C134.691 127.611 135.142 125.693 135.566 123.771C135.783 122.811 135.966 121.843 136.205 120.887C136.44 119.93 136.718 118.984 137.067 118.062C137.419 117.144 137.84 116.242 138.421 115.443C138.994 114.653 139.787 113.956 140.764 113.742C141.739 113.52 142.747 113.788 143.632 114.199C144.525 114.615 145.343 115.172 146.136 115.755Z" fill="#352C38"/>
<path d="M103.614 118.48C103.802 119.828 103.565 120.976 103.083 121.043C102.602 121.11 102.058 120.072 101.869 118.723C101.681 117.375 101.918 116.227 102.4 116.16C102.882 116.093 103.425 117.131 103.614 118.48Z" fill="#1A141C"/>
<path d="M115.668 118.223C115.857 119.572 115.619 120.719 115.137 120.787C114.656 120.854 114.112 119.815 113.924 118.467C113.735 117.119 113.973 115.971 114.455 115.904C114.936 115.836 115.479 116.875 115.668 118.223Z" fill="#1A141C"/>
<path d="M105.951 117.98C106.057 118.296 106.135 118.624 106.179 118.955C106.232 119.286 106.252 119.621 106.261 119.958C106.271 120.128 106.254 120.295 106.25 120.464C106.248 120.634 106.223 120.801 106.209 120.971C106.196 121.141 106.163 121.307 106.13 121.474C106.098 121.642 106.072 121.811 106.022 121.975C105.979 122.141 105.931 122.305 105.878 122.468L105.691 122.95C105.635 123.112 105.547 123.263 105.469 123.417C105.389 123.57 105.311 123.724 105.209 123.865L104.921 124.297C104.813 124.433 104.693 124.559 104.581 124.69L104.408 124.882L104.215 125.056C104.088 125.173 103.957 125.285 103.826 125.395L103.769 124.896C104.156 125.13 104.536 125.378 104.914 125.628C105.288 125.888 105.664 126.143 106.021 126.432C105.581 126.299 105.158 126.132 104.734 125.969C104.313 125.797 103.895 125.622 103.484 125.434L103.129 125.272L103.428 124.934C103.532 124.816 103.635 124.699 103.743 124.588L103.903 124.419L104.043 124.233C104.136 124.109 104.226 123.983 104.322 123.863L104.568 123.47C104.656 123.343 104.722 123.202 104.79 123.063C104.853 122.921 104.944 122.794 104.996 122.647L105.176 122.216L105.328 121.773C105.386 121.627 105.421 121.473 105.464 121.322C105.509 121.171 105.547 121.018 105.579 120.862C105.613 120.708 105.658 120.554 105.681 120.397L105.763 119.924C105.862 119.29 105.925 118.644 105.951 117.98Z" fill="#FC6A5A"/>
<path d="M107.571 129.321C107.571 129.321 107.602 129.205 107.704 129.022C107.753 128.93 107.82 128.822 107.908 128.704C107.999 128.589 108.104 128.456 108.245 128.337C108.376 128.205 108.548 128.091 108.738 127.983C108.837 127.936 108.94 127.888 109.045 127.838C109.153 127.795 109.273 127.775 109.391 127.744C109.51 127.707 109.634 127.704 109.761 127.696C109.886 127.694 110.018 127.669 110.143 127.699C110.269 127.718 110.398 127.736 110.526 127.761C110.654 127.783 110.767 127.841 110.889 127.88C111.006 127.93 111.133 127.965 111.239 128.028C111.345 128.093 111.45 128.156 111.555 128.22C111.774 128.336 111.941 128.504 112.112 128.652C112.196 128.728 112.282 128.798 112.359 128.875C112.435 128.951 112.497 129.037 112.564 129.114C112.697 129.27 112.813 129.422 112.92 129.563C113.029 129.702 113.099 129.85 113.173 129.973C113.245 130.096 113.301 130.208 113.349 130.298C113.443 130.481 113.488 130.589 113.488 130.589C113.488 130.589 113.389 130.52 113.229 130.394C113.15 130.33 113.052 130.255 112.948 130.163C112.839 130.076 112.729 129.966 112.596 129.863C112.46 129.762 112.314 129.652 112.169 129.531C112.027 129.403 111.859 129.298 111.693 129.184C111.528 129.068 111.357 128.948 111.172 128.86L110.901 128.712C110.812 128.659 110.713 128.639 110.62 128.6C110.526 128.568 110.434 128.514 110.339 128.499C110.243 128.482 110.148 128.459 110.054 128.438C109.959 128.407 109.865 128.422 109.772 128.41C109.678 128.404 109.584 128.391 109.494 128.411C109.402 128.421 109.312 128.432 109.224 128.443C109.136 128.465 109.049 128.486 108.965 128.508C108.879 128.525 108.805 128.572 108.724 128.597C108.643 128.623 108.567 128.656 108.498 128.696C108.209 128.836 107.981 129.002 107.82 129.12C107.659 129.24 107.571 129.321 107.571 129.321Z" fill="#FC6A5A"/>
<path d="M104.472 109.74C104.472 109.74 104.518 109.917 104.534 110.235C104.548 110.395 104.544 110.587 104.537 110.81C104.513 111.029 104.509 111.287 104.444 111.554C104.416 111.691 104.387 111.832 104.357 111.979C104.312 112.122 104.266 112.271 104.219 112.423C104.176 112.579 104.105 112.728 104.037 112.883C103.966 113.037 103.9 113.199 103.81 113.352C103.624 113.653 103.443 113.978 103.184 114.255C103.058 114.393 102.951 114.555 102.803 114.677L102.37 115.056C102.229 115.188 102.062 115.284 101.9 115.385C101.739 115.487 101.574 115.583 101.413 115.678C101.072 115.834 100.725 115.963 100.395 116.084C100.051 116.162 99.7179 116.228 99.4049 116.285C99.0897 116.327 98.787 116.314 98.5136 116.322C98.3763 116.323 98.2461 116.327 98.1221 116.325C97.9982 116.318 97.8805 116.293 97.7706 116.28C97.5512 116.25 97.3614 116.213 97.2064 116.184C96.8963 116.125 96.7239 116.078 96.7239 116.078C96.7239 116.078 96.9019 116.025 97.2053 115.955C97.357 115.921 97.5394 115.876 97.7469 115.839C97.9556 115.809 98.1843 115.738 98.4303 115.665C98.6749 115.588 98.9435 115.53 99.2144 115.438C99.4808 115.331 99.759 115.223 100.047 115.122C100.316 114.984 100.594 114.841 100.876 114.696C101.006 114.608 101.135 114.516 101.269 114.431C101.401 114.346 101.539 114.265 101.652 114.153L102.016 113.848C102.139 113.75 102.237 113.623 102.348 113.514C102.578 113.298 102.753 113.041 102.947 112.807C103.043 112.689 103.112 112.554 103.199 112.435C103.283 112.312 103.365 112.192 103.43 112.066C103.502 111.942 103.571 111.821 103.639 111.704C103.7 111.582 103.759 111.465 103.816 111.352C103.934 111.126 104.015 110.906 104.108 110.715C104.177 110.518 104.26 110.347 104.307 110.202C104.418 109.914 104.472 109.74 104.472 109.74Z" fill="#1A141C"/>
<path d="M109.896 111.148C109.896 111.148 109.929 111.185 109.992 111.255C110.051 111.325 110.154 111.416 110.273 111.535C110.398 111.65 110.553 111.783 110.735 111.925C110.822 112.001 110.923 112.07 111.032 112.142C111.142 112.21 111.239 112.301 111.364 112.368C111.484 112.44 111.609 112.514 111.738 112.591C111.871 112.66 112.009 112.731 112.15 112.803C112.22 112.84 112.291 112.877 112.363 112.914C112.438 112.945 112.514 112.977 112.591 113.008C112.744 113.073 112.899 113.139 113.058 113.206C113.392 113.302 113.712 113.452 114.07 113.527C114.246 113.573 114.423 113.616 114.599 113.667C114.776 113.716 114.962 113.737 115.143 113.773L115.688 113.882C115.873 113.904 116.057 113.926 116.239 113.947C116.422 113.969 116.603 113.994 116.782 114.021C116.964 114.034 117.143 114.046 117.319 114.058C117.673 114.074 118.015 114.134 118.343 114.129C118.671 114.136 118.984 114.153 119.274 114.17C119.564 114.191 119.83 114.185 120.068 114.19C120.305 114.19 120.515 114.202 120.687 114.209C121.033 114.225 121.236 114.248 121.236 114.248C121.236 114.248 121.052 114.325 120.722 114.436C120.557 114.491 120.357 114.561 120.123 114.628C119.89 114.697 119.628 114.787 119.332 114.83C119.039 114.886 118.719 114.945 118.378 114.997C118.039 115.061 117.673 115.057 117.296 115.081C117.107 115.09 116.915 115.099 116.72 115.098C116.524 115.088 116.327 115.076 116.127 115.06C115.928 115.045 115.727 115.029 115.525 115.013L114.922 114.904C114.722 114.861 114.519 114.833 114.322 114.776C114.126 114.715 113.931 114.653 113.737 114.593L113.449 114.501L113.173 114.379C112.992 114.296 112.813 114.215 112.637 114.135C112.466 114.041 112.302 113.942 112.143 113.845C111.982 113.751 111.829 113.651 111.691 113.536C111.551 113.425 111.41 113.327 111.287 113.214C111.167 113.097 111.052 112.984 110.942 112.875C110.729 112.651 110.548 112.433 110.411 112.223C110.265 112.022 110.166 111.827 110.087 111.669C109.936 111.346 109.896 111.148 109.896 111.148Z" fill="#1A141C"/>
<path d="M130.188 108.488C128.984 108.425 129.292 110.469 128.835 111.141C130.566 114.602 129.107 118.958 129.254 119.254C133.504 118.306 133.655 108.671 130.188 108.488Z" fill="#FFAC9D"/>
<path d="M106.506 117.414C107.917 112.74 106.103 108.058 102.453 106.956C98.804 105.854 94.7013 108.749 93.2899 113.422C91.8785 118.096 93.6929 122.778 97.3424 123.88C100.992 124.982 105.094 122.087 106.506 117.414Z" stroke="#965450" stroke-width="2.0781" stroke-miterlimit="10"/>
<path d="M122.352 122.199C123.764 117.525 121.949 112.843 118.3 111.741C114.65 110.639 110.548 113.534 109.136 118.207C107.725 122.881 109.539 127.563 113.189 128.665C116.838 129.767 120.941 126.872 122.352 122.199Z" stroke="#965450" stroke-width="2.0781" stroke-miterlimit="10"/>
<path d="M106.025 118.624C106.025 118.624 108.14 116.614 108.789 119.827" stroke="#965450" stroke-width="1.039" stroke-miterlimit="10"/>
<path d="M122.56 122.192L125.109 122.559C125.109 122.559 128.274 108.263 130.322 108.26C131.718 108.258 132.487 111.333 132.487 111.333" stroke="#965450" stroke-width="2.0781" stroke-miterlimit="10"/>
<path d="M99.2327 134.209C99.2327 134.209 161.898 136.515 164.589 148.626C166.435 156.933 138.831 155.738 119.224 149.971C99.6171 144.204 99.2327 134.209 99.2327 134.209Z" fill="#FFAC9D"/>
<path d="M88.2757 136.323C88.2757 136.323 73.0983 134.824 71.5521 142.282C69.5696 151.844 85.1999 155.161 122.684 154.584C160.168 154.007 149.595 152.854 139.408 152.085C139.408 152.085 166.511 153.431 140.369 149.586C140.369 149.586 164.397 152.085 140.561 147.664C140.561 147.664 162.859 150.355 136.909 145.165C136.909 145.165 134.142 145.706 129.989 144.588C119.79 141.845 100.706 137.552 88.2757 136.323Z" fill="#EF998E"/>
<path d="M130.565 144.396C130.565 144.396 153.44 141.128 135.755 146.318C118.071 151.509 130.565 144.396 130.565 144.396Z" fill="#EF998E"/>
<path d="M119.608 139.975C119.608 139.975 99.8575 132.036 96.4901 134.475C93.1224 136.915 85.5044 148.754 96.9567 136.573C96.9567 136.573 90.2741 157.609 98.9599 138.611C98.9599 138.611 97.2564 159.069 101.103 139.297C101.103 139.297 105.456 157.21 103.607 139.392L126.083 143.517L119.608 139.975Z" fill="#FFAC9D"/>
<path d="M117.297 36.1153C111.101 35.6691 97.0195 36.2641 95.7049 42.5112C94.203 48.6095 107.158 48.0145 112.039 47.4196C115.794 46.9734 126.121 43.1061 118.423 40.5775C114.48 39.2389 104.341 41.9162 101.713 44.5935C91.1986 55.3028 120.864 54.1129 119.737 50.3944C118.235 45.0397 92.7008 53.6667 106.031 58.1289C109.411 59.3188 119.925 57.3852 112.978 55.6003C107.157 54.2616 103.778 59.9137 107.721 62.8885" stroke="#FC6A5A" stroke-width="1.8773" stroke-miterlimit="10"/>
<path d="M38.5902 155.03H83.3117L66.3897 124.208H21.6682L38.5902 155.03Z" fill="#352C38"/>
<path d="M108.241 151.706H77.1172V155.03H108.241V151.706Z" fill="#352C38"/>
<path d="M35.5684 155.03H80.29L63.3684 124.208H18.6465L35.5684 155.03Z" fill="#765E69"/>
</svg>
